<svg xmlns="http://www.w3.org/2000/svg" width="71" height="49" viewBox="0 0 71 49">
    <g fill="none" fill-rule="evenodd">
        <g transform="rotate(21 20.153 129.696)">
            <rect width="24.686" height="40.366" x=".75" y=".75" fill="#FFF" stroke="#979797" stroke-width="1.5" rx="5"/>
            <path fill="#605C5C" fill-rule="nonzero" d="M22.522 19.943l1.837-.187v-1.73l-.026-.002h-1.73l-1.018 1.08-1.166-3.552-.01-.026s-1.463-1.366-7.221-1.366h-.19c-5.758 0-7.222 1.366-7.222 1.366l-.01.026L4.6 19.104l-1.017-1.08h-1.73l-.026.001v1.73l1.837.188.178.35c-.57.571-.693 1.731-.356 3.362.026.127.067.446.072.841v3.733c0 .05.04.092.09.092h2.861a.09.09 0 0 0 .09-.092v-2.988h12.987v2.988c0 .05.041.092.09.092h2.862a.09.09 0 0 0 .09-.092v-3.733c.005-.395.046-.714.072-.84.337-1.632.213-2.792-.357-3.363l.179-.35zM9.637 23.36l-3.836.037-.32-1.847 4.263.26-.107 1.55zM5.48 19.701l1.246-3.58c.158-.093.556-.267 1.472-.425 1.175-.202 2.79-.304 4.798-.304h.192c2.008 0 3.623.102 4.798.304.916.158 1.314.332 1.472.425l1.246 3.58H5.481zm14.904 3.695l-3.836-.037-.107-1.55 4.263-.26-.32 1.847z"/>
        </g>
        <g transform="rotate(-21 28.525 7.937)">
            <rect width="24.586" height="40.291" x=".75" y=".75" fill="#FFF" stroke="#979797" stroke-width="1.5" rx="5"/>
            <path fill="#605C5C" fill-rule="nonzero" d="M22.436 19.908l1.83-.187v-1.728H22.517l-1.014 1.077-1.161-3.546-.01-.026s-1.458-1.363-7.194-1.363h-.189c-5.736 0-7.195 1.363-7.195 1.363l-.01.026-1.161 3.546-1.014-1.078H1.846l-.026.001v1.728l1.83.187.178.349c-.568.57-.691 1.728-.356 3.356.026.126.068.445.072.84v3.726c0 .05.04.092.09.092h2.85c.05 0 .09-.041.09-.092v-2.983H19.512v2.983c0 .05.04.092.09.092h2.85c.05 0 .09-.041.09-.092v-3.726c.005-.395.046-.714.072-.84.336-1.628.212-2.786-.355-3.356l.177-.349zM9.6 23.318l-3.821.036-.319-1.844 4.247.26-.107 1.548zm-4.14-3.651l1.241-3.575c.158-.092.554-.267 1.467-.424 1.17-.201 2.779-.304 4.78-.304h.191c2 0 3.609.103 4.78.304.912.157 1.308.332 1.466.424l1.242 3.575H5.46zm14.848 3.687l-3.822-.036-.106-1.548 4.247-.26-.32 1.844z"/>
        </g>
        <g transform="translate(24.185 .41)">
            <rect width="25.91" height="40.004" x=".75" y=".75" fill="#FFF" stroke="#979797" stroke-width="1.5" rx="5"/>
            <path fill="#FA9634" fill-rule="nonzero" d="M23.575 19.771l1.923-.186V17.87l-.027-.001H23.66l-1.065 1.07-1.221-3.522-.01-.025s-1.533-1.354-7.56-1.354h-.199c-6.027 0-7.559 1.354-7.559 1.354l-.01.025-1.22 3.522-1.066-1.07H1.912v1.716l1.923.186.187.346c-.597.567-.726 1.717-.373 3.334.027.125.07.442.075.834v3.7c0 .05.042.092.094.092h2.996c.052 0 .094-.041.094-.091v-2.963h13.594v2.963c0 .05.043.09.094.09h2.996c.052 0 .094-.04.094-.09v-3.7c.005-.393.048-.71.076-.835.352-1.617.223-2.767-.374-3.334l.187-.346zm-13.488 3.387l-4.015.036-.335-1.831 4.462.258-.112 1.537zm-4.35-3.626l1.304-3.55c.166-.092.582-.265 1.541-.421 1.23-.2 2.92-.302 5.023-.302h.2c2.103 0 3.792.101 5.023.302.959.156 1.375.329 1.54.421l1.305 3.55H5.737zm15.601 3.662l-4.015-.036-.112-1.537 4.462-.258-.335 1.83z"/>
        </g>
    </g>
</svg>
