<?xml version="1.0" encoding="UTF-8"?>
<svg width="105px" height="61px" viewBox="0 0 105 61" version="1.1" xmlns="http://www.w3.org/2000/svg" xmlns:xlink="http://www.w3.org/1999/xlink">
    <!-- Generator: Sketch 64 (93537) - https://sketch.com -->
    <title>ola-micro-active</title>
    <desc>Created with Sketch.</desc>
    <defs>
        <linearGradient x1="84.0895881%" y1="100%" x2="32.1337198%" y2="-11.1278377%" id="linearGradient-1">
            <stop stop-color="#F6BE45" offset="0%"></stop>
            <stop stop-color="#DC332E" offset="100%"></stop>
            <stop stop-color="#DC332E" offset="100%"></stop>
        </linearGradient>
        <linearGradient x1="83.4399338%" y1="100%" x2="32.4742022%" y2="-11.1278377%" id="linearGradient-2">
            <stop stop-color="#F6BE45" offset="0%"></stop>
            <stop stop-color="#DC332E" offset="100%"></stop>
            <stop stop-color="#DC332E" offset="100%"></stop>
        </linearGradient>
        <radialGradient cx="50.4014781%" cy="48.6002941%" fx="50.4014781%" fy="48.6002941%" r="349.897059%" gradientTransform="translate(0.504015,0.486003),scale(0.102024,1.000000),translate(-0.504015,-0.486003)" id="radialGradient-3">
            <stop stop-color="#000000" stop-opacity="0.2" offset="0%"></stop>
            <stop stop-color="#231F20" stop-opacity="0.2" offset="16%"></stop>
            <stop stop-color="#231F20" stop-opacity="0.15" offset="85%"></stop>
            <stop stop-color="#231F20" stop-opacity="0.1" offset="94%"></stop>
            <stop stop-color="#8C8E24" stop-opacity="0.04" offset="99%"></stop>
            <stop stop-color="#CFD527" stop-opacity="0" offset="100%"></stop>
        </radialGradient>
    </defs>
    <g id="Page-1" stroke="none" stroke-width="1" fill="none" fill-rule="evenodd">
        <g id="Artboard" transform="translate(-1821.000000, -1875.000000)">
            <g id="ola-micro-active" transform="translate(1814.000000, 1876.000000)">
                <path d="M108.352941,29.6470588 C108,29.6470588 108,20.8235294 93.1764706,16.9411765 C85.0588235,14.1176471 77.6470588,10.2352941 70.2352941,6 C62.4705882,1.76470588 53.6470588,-6.27276009e-15 45.1764706,0.352941176 C37.0588235,0.352941176 28.9411765,1.05882353 20.8235294,2.47058824 C19.0588235,3.17647059 20.1176471,4.23529412 20.1176471,4.23529412 C17.6470588,7.41176471 14.1176471,20.1176471 13.0588235,22.2352941 C12,24.3529412 10.5882353,28.2352941 10.5882353,28.2352941 C8.82352941,30.7058824 8.11764706,33.8823529 8.47058824,37.0588235 C8.47058824,40.9411765 11.2941176,44.1176471 15.1764706,44.8235294 C14.1176471,39.5294118 17.6470588,34.2352941 22.9411765,33.1764706 C24.3529412,32.8235294 25.7647059,32.8235294 27.1764706,33.1764706 C31.0588235,33.8823529 33.8823529,36.7058824 34.5882353,40.5882353 C34.9411765,42 34.9411765,43.7647059 34.5882353,45.1764706 L82.5882353,45.1764706 C81.1764706,39.8823529 84.3529412,34.5882353 89.2941176,33.1764706 C94.2352941,31.7647059 99.8823529,34.9411765 101.294118,39.8823529 C101.647059,41.6470588 101.647059,43.4117647 101.294118,44.8235294 L105.882353,44.8235294 C108.352941,44.8235294 110.470588,42.7058824 110.470588,40.2352941 L110.470588,32.1176471 C110.470588,31.4117647 109.411765,30 108.352941,29.6470588 L108.352941,29.6470588 Z" id="Path" fill="#FBFBFB" fill-rule="nonzero"></path>
                <path d="M32.8235294,21.5294118 C34.9411765,19.7647059 64.5882353,17.2941176 78,23.6470588 C90.3529412,29.6470588 93.1764706,32.8235294 93.5294118,33.1764706 C96,33.5294118 98.1176471,34.5882353 99.8823529,36.3529412 C101.294118,36.3529412 102.352941,36 103.764706,35.2941176 C105.882353,34.2352941 108.352941,32.4705882 110.823529,31.0588235 C110.470588,30.3529412 109.764706,29.6470588 109.058824,29.6470588 C108.705882,29.6470588 108.705882,20.8235294 93.8823529,16.9411765 C85.4117647,14.4705882 77.6470588,10.5882353 70.5882353,6.35294118 C62.8235294,2.11764706 54,0.352941176 45.1764706,0.705882353 C37.0588235,0.705882353 28.5882353,1.41176471 20.8235294,2.82352941 C19.0588235,3.52941176 20.1176471,4.58823529 20.1176471,4.58823529 C17.6470588,7.76470588 13.7647059,20.4705882 13.0588235,22.5882353 C12.3529412,24.7058824 10.2352941,28.2352941 10.2352941,28.2352941 C9.52941176,29.2941176 9.17647059,30.3529412 8.82352941,31.4117647 C11.2941176,33.8823529 14.8235294,35.2941176 18,35.6470588 C20.4705882,33.5294118 23.6470588,32.4705882 26.8235294,33.1764706 C26.8235294,33.1764706 30.7058824,22.9411765 32.8235294,21.5294118 L32.8235294,21.5294118 Z" id="Path" fill="#EFEFEF" fill-rule="nonzero"></path>
                <path d="M108.352941,29.6470588 C108.352941,29.6470588 108.352941,28.9411765 108,28.2352941 C107.294118,28.9411765 106.941176,29.6470588 106.235294,30.3529412 L98.1176471,34.9411765 L98.1176471,35.2941176 C101.294118,37.7647059 102.352941,41.6470588 101.294118,45.5294118 L105.882353,45.5294118 C108.352941,45.5294118 110.470588,43.4117647 110.470588,40.9411765 L110.470588,32.8235294 C110.470588,31.4117647 109.411765,30 108.352941,29.6470588 L108.352941,29.6470588 Z" id="Path" fill="url(#linearGradient-1)"></path>
                <path d="M8.47058824,37.0588235 C8.82352941,40.9411765 11.2941176,44.1176471 15.1764706,44.8235294 C14.4705882,40.5882353 16.2352941,36.3529412 20.1176471,34.2352941 L10.5882353,28.2352941 C8.82352941,30.7058824 8.11764706,33.8823529 8.47058824,37.0588235 Z" id="Path" fill="url(#linearGradient-2)"></path>
                <path d="M22.5882353,7.41176471 L28.5882353,6.35294118 L24.7058824,8.82352941 L38.1176471,8.11764706 L38.1176471,14.1176471 L22.2352941,14.1176471 L21.8823529,16.5882353 L44.1176471,16.5882353 L44.1176471,4.58823529 L47.2941176,4.58823529 L47.2941176,7.76470588 C47.2941176,7.76470588 59.6470588,7.76470588 67.0588235,14.1176471 L47.2941176,14.1176471 L47.2941176,16.5882353 L78.3529412,16.5882353 L76.5882353,14.8235294 C82.2352941,17.6470588 88.2352941,20.1176471 94.2352941,21.5294118 C97.4117647,22.2352941 100.588235,22.2352941 103.764706,22.2352941 C100.588235,19.4117647 96.7058824,17.6470588 92.8235294,16.9411765 C84.7058824,14.1176471 77.2941176,10.2352941 69.8823529,6 C62.1176471,1.76470588 53.2941176,-6.27276009e-15 44.8235294,0.352941176 C36.7058824,0.352941176 28.5882353,1.05882353 20.4705882,2.47058824 C18.7058824,3.17647059 19.7647059,4.23529412 19.7647059,4.23529412 C17.2941176,7.41176471 13.7647059,20.1176471 12.7058824,22.2352941 C13.0588235,22.5882353 18.3529412,10.2352941 22.5882353,7.41176471 L22.5882353,7.41176471 Z" id="Path" fill="#D5D5D5" fill-rule="nonzero"></path>
                <path d="M109.764706,30.7058824 C104.823529,30.7058824 100.235294,28.9411765 96.7058824,25.4117647 C96.7058824,25.4117647 93.8823529,22.9411765 94.9411765,22.2352941 C96,21.5294118 102.705882,22.2352941 105.882353,24.3529412" id="Path" stroke="#000000" stroke-width="1.10526316" fill="#FFD422" fill-rule="nonzero" stroke-linejoin="round"></path>
                <path d="M75.8823529,38.8235294 L40.9411765,38.8235294 L39.5294118,34.2352941 L73.0588235,34.2352941 C74.1176471,31.0588235 76.2352941,28.5882353 79.0588235,27.1764706 C83.6470588,24.7058824 86.4705882,27.1764706 84.3529412,27.8823529 C79.4117647,29.6470588 76.2352941,33.8823529 75.8823529,38.8235294 Z" id="Path" fill="#EAEAEA" fill-rule="nonzero"></path>
                <path d="M19.4117647,27.5294118 C25.7647059,23.6470588 33.8823529,25.7647059 37.7647059,32.1176471 C38.8235294,33.5294118 39.1764706,35.2941176 39.5294118,37.0588235 L39.5294118,37.7647059" id="Path" stroke="#DFDFDF" stroke-width="4.2" stroke-linecap="round"></path>
                <circle id="Oval" fill="#323232" fill-rule="nonzero" cx="24.7058824" cy="42.7058824" r="9.52941176"></circle>
                <path d="M24.7058824,36.3529412 C29.2941176,36.3529412 33.1764706,39.8823529 34.2352941,44.1176471 C35.2941176,38.8235294 31.7647059,33.8823529 26.4705882,33.1764706 C21.1764706,32.4705882 16.2352941,35.6470588 15.5294118,40.9411765 C15.1764706,42 15.1764706,43.0588235 15.5294118,44.1176471 C16.2352941,39.5294118 20.1176471,36.3529412 24.7058824,36.3529412 L24.7058824,36.3529412 Z" id="Path" fill="#181818" fill-rule="nonzero"></path>
                <circle id="Oval" stroke="#000000" stroke-width="1.58823529" fill="#D8D8D8" fill-rule="nonzero" stroke-linejoin="round" cx="24.7058824" cy="42.7058824" r="5.64705882"></circle>
                <path d="M19.0588235,28.2352941 C25.4117647,24.3529412 33.5294118,26.4705882 37.4117647,32.4705882 C38.4705882,34.2352941 39.1764706,36.3529412 39.5294118,38.8235294" id="Path" stroke="#C9C9C9" stroke-width="1.23529412" stroke-linecap="round"></path>
                <circle id="Oval" fill="#323232" fill-rule="nonzero" cx="91.7647059" cy="42.7058824" r="9.52941176"></circle>
                <path d="M91.7647059,36.3529412 C96.3529412,36.3529412 100.235294,39.8823529 101.294118,44.1176471 C102.352941,38.8235294 98.8235294,33.8823529 93.5294118,33.1764706 C88.2352941,32.1176471 83.2941176,35.6470588 82.5882353,40.9411765 C82.2352941,42 82.2352941,43.0588235 82.5882353,44.1176471 C83.2941176,39.5294118 87.1764706,36.3529412 91.7647059,36.3529412 L91.7647059,36.3529412 Z" id="Path" fill="#181818" fill-rule="nonzero"></path>
                <circle id="Oval" stroke="#000000" stroke-width="1.58823529" fill="#D8D8D8" fill-rule="nonzero" stroke-linejoin="round" cx="91.7647059" cy="42.7058824" r="5.64705882"></circle>
                <path d="M108.352941,29.6470588 C108,29.6470588 108,20.8235294 93.1764706,16.9411765 C85.0588235,14.1176471 77.6470588,10.2352941 70.2352941,6 C62.4705882,1.76470588 53.6470588,-6.27276009e-15 45.1764706,0.352941176 C37.0588235,0.352941176 28.9411765,1.05882353 20.8235294,2.47058824 C19.0588235,3.17647059 20.1176471,4.23529412 20.1176471,4.23529412 C17.6470588,7.41176471 14.1176471,20.1176471 13.0588235,22.2352941 C12,24.3529412 10.5882353,28.2352941 10.5882353,28.2352941 C8.82352941,30.7058824 8.11764706,33.8823529 8.47058824,37.0588235 C8.47058824,40.9411765 11.2941176,44.1176471 15.1764706,44.8235294 C14.1176471,39.5294118 17.6470588,34.2352941 22.9411765,33.1764706 C24.3529412,32.8235294 25.7647059,32.8235294 27.1764706,33.1764706 C31.0588235,33.8823529 33.8823529,36.7058824 34.5882353,40.5882353 C34.9411765,42 34.9411765,43.7647059 34.5882353,45.1764706 L82.5882353,45.1764706 C81.1764706,39.8823529 84.3529412,34.5882353 89.2941176,33.1764706 C94.2352941,31.7647059 99.8823529,34.9411765 101.294118,39.8823529 C101.647059,41.6470588 101.647059,43.4117647 101.294118,44.8235294 L105.882353,44.8235294 C108.352941,44.8235294 110.470588,42.7058824 110.470588,40.2352941 L110.470588,32.1176471 C110.470588,31.4117647 109.411765,30 108.352941,29.6470588 L108.352941,29.6470588 Z" id="Path" stroke="#000000" stroke-width="1.76470588" stroke-linejoin="round"></path>
                <line x1="10.5882353" y1="28.2352941" x2="20.1176471" y2="33.8823529" id="Path" stroke="#000000" stroke-width="1.23529412"></line>
                <path d="M44.4705882,16.9411765 L44.4705882,4.94117647 L30,5.64705882 C30,5.64705882 23.2941176,6 22.2352941,16.5882353 L44.4705882,16.9411765 L44.4705882,16.9411765 Z M47.6470588,17.2941176 L47.6470588,5.29411765 L52.5882353,5.29411765 C55.7647059,5.29411765 59.2941176,5.64705882 62.4705882,6.70588235 C68.4705882,8.82352941 74.1176471,12.3529412 78.7058824,16.9411765 L47.6470588,16.9411765 L47.6470588,17.2941176 Z" id="Shape" stroke="#000000" stroke-width="1.23529412" stroke-linejoin="round"></path>
                <line x1="39.5294118" y1="38.8235294" x2="75.8823529" y2="38.8235294" id="Path" stroke="#C9C9C9" stroke-width="1.76470588" stroke-linecap="round"></line>
                <path d="M74.8235294,38.8235294 C75.5294118,36 76.5882353,33.5294118 78.3529412,31.4117647 C80.1176471,29.2941176 82.2352941,27.8823529 85.0588235,27.1764706 C82.5882353,27.8823529 80.4705882,29.6470588 79.0588235,31.7647059 C77.6470588,33.8823529 76.9411765,36.3529412 76.5882353,38.8235294 L74.8235294,38.8235294 Z" id="Path" fill="#C9C9C9" fill-rule="nonzero"></path>
                <line x1="109.764706" y1="38.1176471" x2="103.764706" y2="38.1176471" id="Path" stroke="#000000" stroke-width="1.76470588" stroke-linecap="round"></line>
                <line x1="98.1176471" y1="34.9411765" x2="106.235294" y2="30.3529412" id="Path" stroke="#000000" stroke-width="1.23529412"></line>
                <path d="M117.882353,53.2941176 C117.882353,56.8235294 129.176471,59.2941176 62.8235294,59.2941176 C-3.52941176,59.2941176 1.05882353,56.4705882 1.05882353,53.2941176 C1.05882353,50.1176471 -3.52941176,47.2941176 62.8235294,47.2941176 C129.176471,47.2941176 117.882353,49.7647059 117.882353,53.2941176 L117.882353,53.2941176 Z" id="Path" fill="url(#radialGradient-3)" fill-rule="nonzero" opacity="0.51"></path>
            </g>
        </g>
    </g>
</svg>