<?xml version="1.0" encoding="UTF-8"?>
<svg width="134px" height="59px" viewBox="0 0 134 59" version="1.1" xmlns="http://www.w3.org/2000/svg" xmlns:xlink="http://www.w3.org/1999/xlink">
    <!-- Generator: Sketch 64 (93537) - https://sketch.com -->
    <title>ola-prime-sedan-active 2</title>
    <desc>Created with Sketch.</desc>
    <defs>
        <linearGradient x1="93.5882787%" y1="100%" x2="27.1554763%" y2="-11.1278377%" id="linearGradient-1">
            <stop stop-color="#F6BE45" offset="0%"></stop>
            <stop stop-color="#DC332E" offset="100%"></stop>
            <stop stop-color="#DC332E" offset="100%"></stop>
        </linearGradient>
        <linearGradient x1="91.9589554%" y1="100%" x2="28.0094012%" y2="-11.1278377%" id="linearGradient-2">
            <stop stop-color="#F6BE45" offset="0%"></stop>
            <stop stop-color="#DC332E" offset="100%"></stop>
            <stop stop-color="#DC332E" offset="100%"></stop>
        </linearGradient>
        <radialGradient cx="50.327961%" cy="48.6002941%" fx="50.327961%" fy="48.6002941%" r="349.897059%" gradientTransform="translate(0.503280,0.486003),scale(0.102024,1.000000),translate(-0.503280,-0.486003)" id="radialGradient-3">
            <stop stop-color="#000000" stop-opacity="0.2" offset="0%"></stop>
            <stop stop-color="#231F20" stop-opacity="0.2" offset="16%"></stop>
            <stop stop-color="#231F20" stop-opacity="0.15" offset="85%"></stop>
            <stop stop-color="#231F20" stop-opacity="0.1" offset="94%"></stop>
            <stop stop-color="#8C8E24" stop-opacity="0.04" offset="99%"></stop>
            <stop stop-color="#CFD527" stop-opacity="0" offset="100%"></stop>
        </radialGradient>
    </defs>
    <g id="Page-1" stroke="none" stroke-width="1" fill="none" fill-rule="evenodd">
        <g id="Artboard" transform="translate(-2071.000000, -1875.000000)">
            <g id="ola-prime-sedan-active-2" transform="translate(2072.000000, 1876.000000)">
                <g id="ola-prime-sedan-active">
                    <path d="M48.0588235,14.2352941 L87.9411765,14.5882353 L97.4705882,18.8235294 C103.117647,21.6470588 108.411765,24.8235294 113.705882,28 C119,30.8235294 121.470588,37.1764706 119,42.4705882 L129.235294,40.3529412 C130.294118,40.3529412 131.352941,39.2941176 131.352941,38.2352941 L131.352941,29.0588235 C130.647059,27.6470588 129.235294,26.9411765 127.823529,26.9411765 C128.529412,19.1764706 124.294118,18.4705882 122.529412,18.1176471 C117.941176,17.0588235 113,16.3529412 108.411765,15.6470588 C105.941176,15.6470588 103.470588,14.9411765 101.352941,14.2352941 C85.1176471,4.35294118 78.4117647,0.470588235 55.8235294,0.470588235 C41,0.117647059 26.1764706,4.35294118 13.4705882,12.1176471 C12.4117647,12.8235294 11.3529412,13.5294118 9.94117647,13.5294118 L4.29411765,13.5294118 L2.17647059,23.7647059 C1.82352941,24.1176471 1.47058824,24.1176471 1.11764706,24.4705882 C3.94117647,28.7058824 8.52941176,31.1764706 13.4705882,31.1764706 C15.2352941,29.0588235 18.0588235,27.6470588 20.8823529,27.2941176 C20.8823529,27.2941176 27.2352941,18.4705882 48.0588235,14.2352941 L48.0588235,14.2352941 Z" id="Path" fill="#F1F1F1" fill-rule="nonzero"></path>
                    <path d="M131.352941,29.4117647 C130.647059,28 129.235294,27.2941176 127.823529,27.2941176 L127.823529,24.4705882 C125.705882,25.1764706 123.588235,26.2352941 121.823529,27.6470588 L120.764706,26.2352941 L116.529412,31.1764706 C119.352941,34.3529412 120.058824,38.9411765 118.294118,42.8235294 L128.529412,40.7058824 C129.588235,40.7058824 130.647059,39.6470588 130.647059,38.5882353 L131.352941,29.4117647 L131.352941,29.4117647 Z" id="Path" fill="url(#linearGradient-1)"></path>
                    <circle id="Oval" fill="#4F4F4F" fill-rule="nonzero" cx="21.9411765" cy="38.9411765" r="11.2941176"></circle>
                    <path d="M21.9411765,31.8823529 C27.2352941,31.8823529 31.8235294,35.7647059 32.8823529,41.0588235 C33.9411765,35.0588235 30.0588235,29.0588235 24.0588235,28 C18.0588235,26.9411765 12.0588235,30.8235294 11,36.8235294 C10.6470588,38.2352941 10.6470588,39.6470588 11,41.0588235 C12.0588235,35.7647059 16.6470588,31.8823529 21.9411765,31.8823529 Z" id="Path" fill="#393939" fill-rule="nonzero"></path>
                    <circle id="Oval" stroke="#000000" stroke-width="1.23529412" fill="#DEDEDE" fill-rule="nonzero" stroke-linejoin="round" cx="21.9411765" cy="38.9411765" r="6"></circle>
                    <circle id="Oval" fill="#4F4F4F" fill-rule="nonzero" cx="108.058824" cy="38.9411765" r="11.2941176"></circle>
                    <path d="M108.058824,31.8823529 C113.352941,31.8823529 117.941176,35.7647059 119,41.0588235 C120.058824,35.0588235 116.176471,29.0588235 110.176471,28 C104.176471,26.9411765 98.1764706,30.8235294 97.1176471,36.8235294 C96.7647059,38.2352941 96.7647059,39.6470588 97.1176471,41.0588235 C98.1764706,35.7647059 102.764706,31.8823529 108.058824,31.8823529 L108.058824,31.8823529 Z" id="Path" fill="#393939" fill-rule="nonzero"></path>
                    <circle id="Oval" stroke="#000000" stroke-width="1.23529412" fill="#DEDEDE" fill-rule="nonzero" stroke-linejoin="round" cx="108.058824" cy="38.9411765" r="6"></circle>
                    <path d="M127.823529,27.2941176 C128.529412,19.5294118 124.294118,18.8235294 122.529412,18.4705882 C117.941176,17.4117647 113,16.7058824 108.411765,16 C105.941176,16 103.470588,15.2941176 101.352941,14.5882353 C85.1176471,4.70588235 78.4117647,0.823529412 55.8235294,0.823529412 C40.6470588,0.470588235 26.1764706,4.70588235 13.1176471,12.4705882 C12.0588235,13.1764706 11,13.8823529 9.58823529,13.8823529 L4.29411765,13.8823529 L4.64705882,16.3529412 L10.2941176,16.3529412 C11.7058824,16.3529412 12.7647059,16 13.8235294,14.9411765 C26.5294118,7.17647059 41,3.29411765 55.8235294,3.64705882 C78.4117647,3.64705882 84.7647059,7.17647059 101.352941,17.0588235 C103.470588,18.1176471 105.941176,18.4705882 108.411765,18.4705882 C113,19.1764706 117.941176,19.8823529 122.529412,20.9411765 C124.294118,21.2941176 127.823529,27.2941176 127.823529,27.2941176 Z" id="Path" fill="#D3D3D3" fill-rule="nonzero"></path>
                    <path d="M127.823529,27.2941176 C128.176471,21.2941176 125.705882,19.5294118 123.941176,18.8235294 L118.647059,22.7058824 L122.176471,28 L129.941176,28 C129.235294,27.6470588 128.529412,27.2941176 127.823529,27.2941176 Z" id="Path" stroke="#000000" stroke-width="1.10526316" fill="#FFD422" fill-rule="nonzero" stroke-linejoin="round"></path>
                    <path d="M15.5882353,29.4117647 L6.76470588,24.1176471 L1.11764706,24.4705882 C0.764705882,25.1764706 0.764705882,25.8823529 0.764705882,26.2352941 L0.764705882,36.1176471 C0.764705882,38.9411765 4.29411765,38.5882353 4.29411765,38.5882353 L11,42.8235294 C9.94117647,40.3529412 9.94117647,36.8235294 11.3529412,34 C12.4117647,32.2352941 13.8235294,30.4705882 15.5882353,29.4117647 Z" id="Path" fill="url(#linearGradient-2)"></path>
                    <path d="M1.11764706,24.4705882 C1.11764706,24.4705882 6.05882353,25.1764706 7.82352941,23.4117647 C9.58823529,21.6470588 5,15.6470588 3.94117647,15.6470588" id="Path" stroke="#000000" stroke-width="1.10526316" fill="#FFD422" fill-rule="nonzero" stroke-linejoin="round"></path>
                    <path d="M4.29411765,38.9411765 C4.29411765,38.9411765 0.764705882,39.2941176 0.764705882,36.4705882 L0.764705882,26.2352941 C0.764705882,25.1764706 1.11764706,24.1176471 2.17647059,23.4117647 L4.29411765,13.1764706 L9.94117647,13.1764706 C11.3529412,13.1764706 12.4117647,12.8235294 13.4705882,11.7647059 C26.1764706,4 41,-0.235294118 55.8235294,0.117647059 C78.4117647,0.117647059 84.7647059,4 101.352941,13.8823529 C103.470588,14.9411765 105.941176,15.2941176 108.411765,15.2941176 C113,16 117.941176,16.7058824 122.529412,17.7647059 C124.294118,18.1176471 128.529412,19.1764706 127.823529,26.5882353 C129.235294,26.5882353 130.647059,27.2941176 131.352941,28.7058824 L131.352941,37.8823529 C131.352941,38.9411765 130.294118,40 129.235294,40 L119,43.1764706 C121.470588,37.1764706 118.294118,30.4705882 112.294118,28 C110.529412,27.2941176 108.764706,26.9411765 107,27.2941176 C102.764706,27.6470588 99.2352941,30.1176471 97.4705882,34 C96.0588235,36.8235294 96.0588235,40 97.1176471,43.1764706 L32.8823529,43.1764706 C35.3529412,37.1764706 32.1764706,30.4705882 26.1764706,28 C24.4117647,27.2941176 22.6470588,26.9411765 20.8823529,27.2941176 C16.6470588,27.6470588 13.1176471,30.4705882 11.3529412,34 C9.94117647,36.8235294 9.94117647,40.3529412 11,43.1764706 L4.29411765,38.9411765 Z" id="Path" stroke="#000000" stroke-width="1.76470588" stroke-linejoin="round"></path>
                    <path d="M11.3529412,22 C17.3529412,17.7647059 25.1176471,17.4117647 31.4705882,20.2352941 C36.4117647,22.7058824 39.9411765,27.6470588 40.2941176,33.2941176 L90.0588235,33.2941176 C90.0588235,26.9411765 94.6470588,21.6470588 101,20.5882353" id="Path" stroke="#EDEDED" stroke-width="4.94117647" stroke-linecap="round" stroke-linejoin="round"></path>
                    <path d="M11.3529412,22 C17.3529412,17.7647059 25.1176471,17.4117647 31.4705882,20.2352941 C36.4117647,22.7058824 39.9411765,27.6470588 40.2941176,33.2941176 L90.0588235,33.2941176 C90.0588235,26.9411765 94.6470588,21.6470588 101,20.5882353" id="Path-Copy-10" stroke="#EDEDED" stroke-width="4.94117647" stroke-linecap="round" stroke-linejoin="round"></path>
                    <path d="M11.7058824,23.0588235 C25.4705882,13.5294118 39.2352941,24.4705882 39.2352941,34.3529412 L91.4705882,34.3529412" id="Path" stroke="#C9C9C9" stroke-width="1.76470588" stroke-linecap="round"></path>
                    <path d="M42.4117647,7.17647059 L42.4117647,9.29411765 C47.3529412,8.58823529 52.2941176,8.58823529 57.2352941,8.94117647 L57.2352941,11.7647059 L42.7647059,11.4117647 L42.7647059,13.5294118 L63.5882353,14.2352941 L63.5882353,6.47058824 C56.5294118,6.11764706 49.4705882,6.11764706 42.4117647,7.17647059 L42.4117647,7.17647059 Z" id="Path" fill="#D5D5D5" fill-rule="nonzero"></path>
                    <path d="M90.7647059,34.3529412 C90.7647059,32.5882353 91.1176471,30.8235294 91.8235294,29.4117647 C92.5294118,27.6470588 93.2352941,26.2352941 94.2941176,25.1764706 C95.3529412,23.7647059 96.7647059,23.0588235 98.5294118,22.3529412 C99.9411765,21.6470588 101.705882,21.2941176 103.470588,20.9411765 C101.705882,21.2941176 100.294118,21.6470588 98.8823529,22.7058824 C97.4705882,23.4117647 96.0588235,24.4705882 95,25.8823529 C92.8823529,28.3529412 91.8235294,31.5294118 92.1764706,34.7058824 L90.7647059,34.3529412 L90.7647059,34.3529412 Z" id="Path" fill="#000000" fill-rule="nonzero"></path>
                    <line x1="131" y1="34.7058824" x2="125.705882" y2="34.7058824" id="Path" stroke="#000000" stroke-width="1.76470588" stroke-linecap="round" stroke-linejoin="round"></line>
                    <path d="M38.5294118,13.5294118 L38.5294118,7.88235294 C33.5882353,8.58823529 29,10.3529412 25.1176471,13.1764706 L38.5294118,13.5294118 Z" id="Path" stroke="#000000" stroke-width="1.23529412" fill="#D5D5D5" fill-rule="nonzero"></path>
                    <path d="M67.1176471,6.82352941 L67.1176471,10 C69.9411765,10.3529412 72.7647059,11.0588235 75.5882353,12.1176471 L67.1176471,12.1176471 L67.1176471,14.2352941 L89.7058824,14.5882353 C83,10 75.2352941,7.52941176 67.1176471,6.82352941 L67.1176471,6.82352941 Z" id="Path" fill="#D5D5D5" fill-rule="nonzero"></path>
                    <path d="M42.4117647,13.5294118 L42.4117647,7.52941176 C49.4705882,6.47058824 56.5294118,6.11764706 63.2352941,6.82352941 L63.2352941,14.5882353 L42.4117647,13.5294118 L42.4117647,13.5294118 Z M67.1176471,14.2352941 L67.1176471,6.82352941 C75.2352941,7.52941176 83,10 89.7058824,14.5882353 L67.1176471,14.2352941 L67.1176471,14.2352941 Z" id="Shape" stroke="#000000" stroke-width="1.23529412"></path>
                    <path d="M15.5882353,29.4117647 L6.76470588,24.1176471 M121.117647,26.5882353 L116.882353,31.5294118" id="Shape" stroke="#000000" stroke-width="1.23529412" stroke-linecap="round" stroke-linejoin="round"></path>
                    <path d="M123.941176,51.2941176 C123.941176,54.8235294 135.235294,57.2941176 68.8823529,57.2941176 C2.52941176,57.2941176 7.11764706,54.4705882 7.11764706,51.2941176 C7.11764706,48.1176471 2.52941176,45.2941176 68.8823529,45.2941176 C135.235294,45.2941176 123.941176,47.7647059 123.941176,51.2941176 L123.941176,51.2941176 Z" id="Path" fill="url(#radialGradient-3)" fill-rule="nonzero" opacity="0.51"></path>
                </g>
            </g>
        </g>
    </g>
</svg>