<?xml version="1.0" encoding="UTF-8"?>
<svg width="112px" height="59px" viewBox="0 0 112 59" version="1.1" xmlns="http://www.w3.org/2000/svg" xmlns:xlink="http://www.w3.org/1999/xlink">
    <!-- Generator: Sketch 64 (93537) - https://sketch.com -->
    <title>ola-mini-active</title>
    <desc>Created with Sketch.</desc>
    <defs>
        <linearGradient x1="101.454407%" y1="100%" x2="23.0328554%" y2="-11.1278377%" id="linearGradient-1">
            <stop stop-color="#F6BE45" offset="0%"></stop>
            <stop stop-color="#DC332E" offset="100%"></stop>
            <stop stop-color="#DC332E" offset="100%"></stop>
        </linearGradient>
        <linearGradient x1="85.0451878%" y1="100%" x2="31.632892%" y2="-11.1278377%" id="linearGradient-2">
            <stop stop-color="#F6BE45" offset="0%"></stop>
            <stop stop-color="#DC332E" offset="100%"></stop>
            <stop stop-color="#DC332E" offset="100%"></stop>
        </linearGradient>
        <radialGradient cx="50.3684704%" cy="48.6002941%" fx="50.3684704%" fy="48.6002941%" r="349.897059%" gradientTransform="translate(0.503685,0.486003),scale(0.102024,1.000000),translate(-0.503685,-0.486003)" id="radialGradient-3">
            <stop stop-color="#000000" stop-opacity="0.2" offset="0%"></stop>
            <stop stop-color="#231F20" stop-opacity="0.2" offset="16%"></stop>
            <stop stop-color="#231F20" stop-opacity="0.15" offset="85%"></stop>
            <stop stop-color="#231F20" stop-opacity="0.1" offset="94%"></stop>
            <stop stop-color="#8C8E24" stop-opacity="0.04" offset="99%"></stop>
            <stop stop-color="#CFD527" stop-opacity="0" offset="100%"></stop>
        </radialGradient>
    </defs>
    <g id="Page-1" stroke="none" stroke-width="1" fill="none" fill-rule="evenodd">
        <g id="Artboard" transform="translate(-1935.000000, -1876.000000)">
            <g id="ola-mini-active" transform="translate(1936.000000, 1876.000000)">
                <path d="M83.6315789,19.5263158 C65.9473684,6.26315789 55.2105263,1.52631579 40.0526316,1.21052632 C31.8421053,0.894736842 23.6315789,1.52631579 15.4210526,3.42105263 C15.1052632,3.42105263 14.7894737,3.73684211 14.4736842,3.73684211 C4.68421053,11 2.78947368,32.1578947 2.78947368,32.1578947 C-0.368421053,31.8421053 0.263157895,34.6842105 0.263157895,34.6842105 L0.263157895,39.1052632 C0.263157895,42.5789474 3.10526316,45.4210526 6.57894737,45.4210526 L7.52631579,45.4210526 C6.57894737,42.5789474 6.57894737,39.7368421 8.15789474,37.2105263 C9.73684211,33.7368421 13.2105263,31.2105263 17,30.8947368 C23,30.2631579 28.0526316,34.6842105 28.6842105,40.6842105 C28.6842105,42.2631579 28.6842105,43.8421053 28.0526316,45.4210526 L80.1578947,45.4210526 C79.2105263,42.5789474 79.2105263,39.7368421 80.4736842,37.2105263 C82.0526316,33.7368421 85.5263158,31.2105263 89.3157895,30.8947368 C95.3157895,30.2631579 100.368421,34.6842105 101,40.6842105 C101,42.2631579 101,43.8421053 100.368421,45.4210526 L109.842105,45.4210526 C107.947368,18.5789474 83.6315789,19.5263158 83.6315789,19.5263158 Z" id="Path" fill="#FDFDFD" fill-rule="nonzero"></path>
                <circle id="Oval" fill="#4F4F4F" fill-rule="nonzero" cx="17.9473684" cy="41.9473684" r="10.4210526"></circle>
                <path d="M17.9473684,35.6315789 C22.6842105,35.6315789 27.1052632,39.1052632 28.0526316,43.8421053 C29,38.1578947 25.5263158,32.7894737 19.8421053,31.8421053 C14.1578947,30.8947368 8.78947368,34.3684211 7.84210526,40.0526316 C7.52631579,41.3157895 7.52631579,42.5789474 7.84210526,43.8421053 C8.78947368,39.1052632 13.2105263,35.6315789 17.9473684,35.6315789 Z" id="Path" fill="#393939" fill-rule="nonzero"></path>
                <circle id="Oval" fill="#4F4F4F" fill-rule="nonzero" cx="90.5789474" cy="41.9473684" r="10.1052632"></circle>
                <path d="M90.5789474,35.6315789 C95.3157895,35.6315789 99.7368421,39.1052632 100.684211,43.8421053 C101.631579,38.1578947 98.1578947,32.7894737 92.4736842,31.8421053 C86.7894737,30.8947368 81.4210526,34.3684211 80.4736842,40.0526316 C80.1578947,41.3157895 80.1578947,42.5789474 80.4736842,43.8421053 C81.4210526,39.1052632 85.8421053,35.6315789 90.5789474,35.6315789 Z" id="Path" fill="#393939" fill-rule="nonzero"></path>
                <circle id="Oval" stroke="#000000" stroke-width="1.57894737" fill="#DEDEDE" fill-rule="nonzero" stroke-linejoin="round" cx="90.5789474" cy="41.9473684" r="5.36842105"></circle>
                <path d="M40.0526316,1.21052632 C31.8421053,0.894736842 23.6315789,1.52631579 15.4210526,3.42105263 C15.1052632,3.42105263 14.7894737,3.73684211 14.4736842,3.73684211 C4.68421053,11 2.78947368,32.1578947 2.78947368,32.1578947 C-0.368421053,31.8421053 0.263157895,34.6842105 0.263157895,34.6842105 L0.263157895,39.1052632 C0.263157895,42.5789474 3.10526316,45.4210526 6.57894737,45.4210526 L7.52631579,45.4210526 C6.57894737,42.5789474 6.57894737,39.7368421 8.15789474,37.2105263 C9.73684211,33.7368421 13.2105263,31.2105263 17,30.8947368 L17.9473684,30.8947368 C18.8947368,28.3684211 23.9473684,16.3684211 34.6842105,15.4210526 L43.2105263,16.0526316 L43.2105263,7.52631579 L46.6842105,8.15789474 L46.6842105,16.3684211 L67.8421053,18.2631579 C67.8421053,18.2631579 82.3684211,23 89.6315789,31.2105263 C95.6315789,30.8947368 100.684211,35.3157895 101,41.3157895 C101,42.8947368 100.684211,44.1578947 100.368421,45.7368421 L109.842105,45.7368421 C107.947368,18.5789474 83.6315789,19.5263158 83.6315789,19.5263158 C65.9473684,6.26315789 55.2105263,1.52631579 40.0526316,1.21052632 Z" id="Path"></path>
                <path d="M14.7894737,5.63157895 C15.1052632,5.63157895 15.4210526,5.31578947 15.7368421,5.31578947 C23.6315789,3.42105263 31.8421053,2.78947368 40.0526316,3.10526316 C55.2105263,3.73684211 65.9473684,8.47368421 83.6315789,21.4210526 C97.2105263,21.4210526 108.578947,31.8421053 109.526316,45.4210526 L109.842105,45.4210526 C107.631579,18.5789474 83.6315789,19.2105263 83.6315789,19.2105263 C65.9473684,5.94736842 55.2105263,1.21052632 40.0526316,0.894736842 C31.8421053,0.578947368 23.6315789,1.21052632 15.4210526,3.10526316 C15.1052632,3.10526316 14.7894737,3.42105263 14.4736842,3.42105263 C4.68421053,10.6842105 2.78947368,31.8421053 2.78947368,31.8421053 C2.78947368,31.8421053 5,12.8947368 14.7894737,5.63157895 Z" id="Path" fill="#DBDBDB" fill-rule="nonzero"></path>
                <path d="M68.7894737,16.3684211 C62.4736842,11.9473684 54.8947368,9.10526316 47.3157895,8.15789474 L47.3157895,11.6315789 C51.7368421,12.2631579 55.8421053,13.5263158 59.6315789,15.7368421 C59.6315789,15.7368421 49.8421053,14.7894737 47.3157895,14.7894737 L47.3157895,16.0526316 L68.4736842,17.9473684 C68.4736842,17.9473684 71.3157895,18.2631579 68.7894737,16.3684211 Z M25.2105263,7.21052632 L25.2105263,9.42105263 C25.2105263,9.42105263 35.9473684,9.42105263 38.4736842,10.0526316 L38.4736842,13.8421053 L25.2105263,13.2105263 L25.2105263,15.1052632 L43.8421053,16.3684211 L43.8421053,7.84210526 C37.5263158,6.89473684 31.2105263,6.89473684 25.2105263,7.21052632 L25.2105263,7.21052632 Z" id="Shape" fill="#DBDBDB" fill-rule="nonzero"></path>
                <path d="M101.315789,45.7368421 L110.157895,45.7368421 C109.842105,40.0526316 107.947368,34.6842105 105.105263,30.2631579 L99.1052632,30.2631579 L96.5789474,33.1052632 C100.684211,35.9473684 102.263158,41 100.684211,45.7368421 L101.315789,45.7368421 L101.315789,45.7368421 Z" id="Path" fill="url(#linearGradient-1)"></path>
                <path d="M0.578947368,34.3684211 L0.578947368,39.1052632 C0.578947368,42.5789474 3.42105263,45.4210526 6.89473684,45.4210526 L7.84210526,45.4210526 C6.89473684,42.5789474 6.89473684,39.7368421 8.47368421,37.2105263 C8.78947368,36.2631579 9.42105263,35.3157895 10.3684211,34.6842105 L3.42105263,31.8421053 C-0.368421053,31.2105263 0.578947368,34.3684211 0.578947368,34.3684211 Z" id="Path" fill="url(#linearGradient-2)"></path>
                <line x1="31.8421053" y1="35.9473684" x2="74.1578947" y2="35.9473684" id="Path" stroke="#EDEDED" stroke-width="4.42105263" stroke-linecap="round" stroke-linejoin="round"></line>
                <path d="M72.2631579,35.9473684 C72.2631579,35.9473684 74.1578947,26.7894737 80.1578947,25.5263158 L89.3157895,25.5263158 C82.0526316,25.5263158 76.0526316,31.2105263 75.4210526,38.4736842 L72.2631579,35.9473684 L72.2631579,35.9473684 Z" id="Path" fill="#EDEDED" fill-rule="nonzero"></path>
                <path d="M13.8421053,23.3157895 C13.8421053,23.3157895 28.3684211,21.4210526 32.1578947,35.9473684" id="Path" stroke="#E5E5E5" stroke-width="4.42105263" stroke-linecap="round" stroke-linejoin="round"></path>
                <path d="M83.6315789,19.5263158 C65.9473684,6.26315789 55.2105263,1.52631579 40.0526316,1.21052632 C31.8421053,0.894736842 23.6315789,1.52631579 15.4210526,3.42105263 C15.1052632,3.42105263 14.7894737,3.73684211 14.4736842,3.73684211 C4.68421053,11 2.78947368,32.1578947 2.78947368,32.1578947 C-0.368421053,31.8421053 0.263157895,34.6842105 0.263157895,34.6842105 L0.263157895,39.1052632 C0.263157895,42.5789474 3.10526316,45.4210526 6.57894737,45.4210526 L7.52631579,45.4210526 C6.57894737,42.5789474 6.57894737,39.7368421 8.15789474,37.2105263 C9.73684211,33.7368421 13.2105263,31.2105263 17,30.8947368 C23,30.2631579 28.0526316,34.6842105 28.6842105,40.6842105 C28.6842105,42.2631579 28.6842105,43.8421053 28.0526316,45.4210526 L80.1578947,45.4210526 C79.2105263,42.5789474 79.2105263,39.7368421 80.4736842,37.2105263 C82.0526316,33.7368421 85.5263158,31.2105263 89.3157895,30.8947368 C95.3157895,30.2631579 100.368421,34.6842105 101,40.6842105 C101,42.2631579 101,43.8421053 100.368421,45.4210526 L109.842105,45.4210526 C107.947368,18.5789474 83.6315789,19.5263158 83.6315789,19.5263158 Z" id="Path" stroke="#000000" stroke-width="1.57894737" stroke-linejoin="round"></path>
                <circle id="Oval" stroke="#000000" stroke-width="1.57894737" fill="#DEDEDE" fill-rule="nonzero" stroke-linejoin="round" cx="17.9473684" cy="41.9473684" r="5.36842105"></circle>
                <path d="M13.8421053,24.2631579 C21.7368421,22.0526316 29.9473684,26.4736842 32.4736842,34.3684211 C32.7894737,35.6315789 33.1052632,37.2105263 33.1052632,38.4736842 L75.7368421,38.4736842" id="Path" stroke="#C9C9C9" stroke-width="1.57894737" stroke-linecap="round"></path>
                <path d="M74.7894737,38.4736842 C74.7894737,35.9473684 75.7368421,33.7368421 77,31.8421053 C78.2631579,29.9473684 80.1578947,28.3684211 82.0526316,27.4210526 C80.1578947,28.3684211 78.5789474,29.9473684 77.6315789,32.1578947 C76.6842105,34.0526316 76.3684211,36.2631579 76.3684211,38.4736842 L74.7894737,38.4736842 Z" id="Path" fill="#C9C9C9" fill-rule="nonzero"></path>
                <path d="M104.789474,29.9473684 L98.7894737,29.9473684 L96.8947368,23.3157895 C100.052632,24.8947368 102.894737,27.1052632 104.789474,29.9473684 Z" id="Path" stroke="#000000" stroke-width="1.10526316" fill="#FFD422" fill-rule="nonzero" stroke-linejoin="round"></path>
                <line x1="105.421053" y1="39.4210526" x2="108.894737" y2="39.4210526" id="Path" stroke="#000000" stroke-width="1.57894737" stroke-linecap="round" stroke-linejoin="round"></line>
                <path d="M25.2105263,7.21052632 L25.2105263,15.1052632 L43.8421053,16.3684211 L43.8421053,7.84210526 C37.5263158,6.89473684 31.2105263,6.89473684 25.2105263,7.21052632 L25.2105263,7.21052632 Z M47.3157895,8.15789474 L47.3157895,16.3684211 L68.4736842,18.2631579 C68.4736842,18.2631579 71.3157895,18.2631579 69.1052632,16.3684211 C62.4736842,11.9473684 54.8947368,9.10526316 47.3157895,8.15789474 L47.3157895,8.15789474 Z" id="Shape" stroke="#000000" stroke-width="1.10526316" stroke-linejoin="round"></path>
                <path d="M21.7368421,14.4736842 L15.4210526,14.1578947 C15.4210526,10.6842105 18.2631579,7.84210526 21.7368421,7.84210526 L21.7368421,14.4736842 Z" id="Path" stroke="#000000" stroke-width="1.10526316" fill="#DBDBDB" fill-rule="nonzero" stroke-linejoin="round"></path>
                <path d="M3.10526316,31.8421053 L10.0526316,34.6842105 M99.1052632,29.9473684 L96.5789474,32.7894737" id="Shape" stroke="#000000" stroke-width="1.10526316" stroke-linejoin="round"></path>
                <path d="M107.631579,53 C107.631579,56.1578947 117.736842,58.3684211 58.3684211,58.3684211 C-1,58.3684211 3.10526316,55.8421053 3.10526316,53 C3.10526316,50.1578947 -1,47.6315789 58.3684211,47.6315789 C117.736842,47.6315789 107.631579,49.8421053 107.631579,53 L107.631579,53 Z" id="Path" fill="url(#radialGradient-3)" fill-rule="nonzero" opacity="0.51"></path>
            </g>
        </g>
    </g>
</svg>