<?xml version="1.0" encoding="UTF-8"?>
<svg width="151px" height="61px" viewBox="0 0 151 61" version="1.1" xmlns="http://www.w3.org/2000/svg" xmlns:xlink="http://www.w3.org/1999/xlink">
    <!-- Generator: Sketch 64 (93537) - https://sketch.com -->
    <title>ola-lux-active</title>
    <desc>Created with Sketch.</desc>
    <defs>
        <radialGradient cx="50.2859512%" cy="48.6002941%" fx="50.2859512%" fy="48.6002941%" r="349.897059%" gradientTransform="translate(0.502860,0.486003),scale(0.102024,1.000000),translate(-0.502860,-0.486003)" id="radialGradient-1">
            <stop stop-color="#000000" stop-opacity="0.2" offset="0%"></stop>
            <stop stop-color="#231F20" stop-opacity="0.2" offset="16%"></stop>
            <stop stop-color="#231F20" stop-opacity="0.15" offset="85%"></stop>
            <stop stop-color="#231F20" stop-opacity="0.1" offset="94%"></stop>
            <stop stop-color="#8C8E24" stop-opacity="0.04" offset="99%"></stop>
            <stop stop-color="#CFD527" stop-opacity="0" offset="100%"></stop>
        </radialGradient>
        <linearGradient x1="28.7283951%" y1="58.1335463%" x2="70.4506173%" y2="45.73083%" id="linearGradient-2">
            <stop stop-color="#434649" offset="0%"></stop>
            <stop stop-color="#5E6162" offset="100%"></stop>
        </linearGradient>
        <linearGradient x1="-0.123802927%" y1="49.5206991%" x2="99.8551869%" y2="49.5206991%" id="linearGradient-3">
            <stop stop-color="#54575A" offset="0%"></stop>
            <stop stop-color="#6B6F70" offset="100%"></stop>
        </linearGradient>
        <linearGradient x1="116.815593%" y1="72.4543065%" x2="14.9820907%" y2="22.5483359%" id="linearGradient-4">
            <stop stop-color="#F6BE45" offset="0%"></stop>
            <stop stop-color="#DC332E" offset="100%"></stop>
            <stop stop-color="#DC332E" offset="100%"></stop>
        </linearGradient>
    </defs>
    <g id="Page-1" stroke="none" stroke-width="1" fill="none" fill-rule="evenodd">
        <g id="Artboard" transform="translate(-2225.000000, -1875.000000)">
            <g id="ola-lux-active" transform="translate(2226.000000, 1876.000000)">
                <path d="M145.428571,51.8571429 C145.428571,56.1428571 159.142857,59.1428571 78.5714286,59.1428571 C-2,59.1428571 3.57142857,55.7142857 3.57142857,51.8571429 C3.57142857,48 -2,44.5714286 78.5714286,44.5714286 C159.142857,44.5714286 145.428571,47.5714286 145.428571,51.8571429 L145.428571,51.8571429 Z" id="Path" fill="url(#radialGradient-1)" fill-rule="nonzero" opacity="0.51"></path>
                <path d="M77.2857143,29.5714286 C77.2857143,29.5714286 59.7142857,30 56.2857143,29.5714286 C52,28.7142857 48.5714286,26.1428571 46,22.7142857 C41.7142857,16.7142857 34.8571429,12.8571429 27.5714286,12.4285714 C20.7142857,12.4285714 13.8571429,15.4285714 9.57142857,20.5714286 L7.85714286,23.1428571" id="Path" stroke="url(#linearGradient-2)" stroke-width="5.14285714" stroke-linecap="round" stroke-linejoin="round"></path>
                <circle id="Oval" fill="#4F4F4F" fill-rule="nonzero" cx="25.8571429" cy="36.8571429" r="13.7142857"></circle>
                <path d="M12.5714286,39.4285714 C14.2857143,32.1428571 21.5714286,27.4285714 29.2857143,29.1428571 C34.4285714,30.4285714 38.7142857,34.7142857 39.5714286,39.8571429 C41.2857143,32.5714286 36.5714286,24.8571429 29.2857143,23.1428571 C22,21.4285714 14.2857143,26.1428571 12.5714286,33.4285714 C11.7142857,35.5714286 11.7142857,37.7142857 12.5714286,39.4285714 C12.1428571,39.8571429 12.5714286,39.4285714 12.5714286,39.4285714 Z" id="Path" fill="#393939" fill-rule="nonzero"></path>
                <circle id="Oval" stroke="#000000" stroke-width="1.45714286" fill="#DEDEDE" fill-rule="nonzero" stroke-linejoin="round" cx="25.8571429" cy="36.8571429" r="6.85714286"></circle>
                <path d="M13.4285714,41.5714286 C12.1428571,38.1428571 12.1428571,34.2857143 13.8571429,31.2857143 C16,27 19.8571429,24 25,23.5714286 C32.2857143,22.7142857 38.7142857,28.2857143 39.5714286,35.5714286 C39.5714286,37.7142857 39.5714286,39.8571429 38.7142857,41.5714286 L109.857143,41.5714286 C108.571429,38.1428571 108.571429,34.2857143 110.285714,31.2857143 C112.428571,27 116.285714,24 121.428571,23.5714286 C128.714286,22.7142857 135.142857,28.2857143 136,35.5714286 C136,37.7142857 136,39.8571429 135.142857,41.5714286 C137.285714,41.1428571 139.857143,41.1428571 142,41.1428571 C144.142857,41.1428571 148.428571,39.8571429 148.857143,37.2857143 C148.857143,37.2857143 146.714286,33.4285714 148,32.5714286 C148,32.5714286 148.857143,32.1428571 148.857143,28.7142857 C148.857143,27.4285714 148.857143,25.7142857 148,24.4285714 C148,24.4285714 135.142857,15.8571429 108.142857,15 C108.142857,15 86.7142857,5.57142857 83.2857143,3.85714286 C68.7142857,5.29354338e-13 53.7142857,-0.428571429 39.1428571,2.14285714 C31.8571429,3 25,5.14285714 18.5714286,8.14285714 C13.4285714,9.85714286 7.85714286,11.1428571 2.28571429,12.4285714 L3.14285714,15.4285714 C2.28571429,17.1428571 2.28571429,18.8571429 2.28571429,21 C2.28571429,21.4285714 2.28571429,21.8571429 1.85714286,22.2857143 C1.42857143,22.7142857 0.571428571,22.7142857 1,25.7142857 C1,29.5714286 1.85714286,33 2.28571429,36.8571429 L13.4285714,41.5714286 L13.4285714,41.5714286 Z" id="Path" fill="url(#linearGradient-3)" fill-rule="nonzero"></path>
                <path d="M13.4285714,41.5714286 C12.1428571,38.1428571 12.1428571,34.2857143 13.8571429,31.2857143 C16,27 19.8571429,24 25,23.5714286 C32.2857143,22.7142857 38.7142857,28.2857143 39.5714286,35.5714286 C39.5714286,37.7142857 39.5714286,39.8571429 38.7142857,41.5714286 L109.857143,41.5714286 C108.571429,38.1428571 108.571429,34.2857143 110.285714,31.2857143 C112.428571,27 116.285714,24 121.428571,23.5714286 C128.714286,22.7142857 135.142857,28.2857143 136,35.5714286 C136,37.7142857 136,39.8571429 135.142857,41.5714286 C137.285714,41.1428571 139.857143,41.1428571 142,41.1428571 C144.142857,41.1428571 148.428571,39.8571429 148.857143,37.2857143 C148.857143,37.2857143 146.714286,33.4285714 148,32.5714286 C148,32.5714286 148.857143,32.1428571 148.857143,28.7142857 C148.857143,27.4285714 148.857143,25.7142857 148,24.4285714 C148,24.4285714 135.142857,15.8571429 108.142857,15 C108.142857,15 86.7142857,5.57142857 83.2857143,3.85714286 C68.7142857,5.29354338e-13 53.7142857,-0.428571429 39.1428571,2.14285714 C31.8571429,3 25,5.14285714 18.5714286,8.14285714 C13.4285714,9.85714286 7.85714286,11.1428571 2.28571429,12.4285714 L3.14285714,15.4285714 C2.28571429,17.1428571 2.28571429,18.8571429 2.28571429,21 C2.28571429,21.4285714 2.28571429,21.8571429 1.85714286,22.2857143 C1.42857143,22.7142857 0.571428571,22.7142857 1,25.7142857 C1,29.5714286 1.85714286,33 2.28571429,36.8571429 L13.4285714,41.5714286 L13.4285714,41.5714286 Z" id="Path" fill="#FCFCFC" fill-rule="nonzero"></path>
                <path d="M142.428571,40.7142857 C144.571429,40.7142857 148.857143,39.4285714 149.285714,36.8571429 C149.285714,36.8571429 147.142857,33 148.428571,31.7142857 L135.571429,31.7142857 C136.857143,34.7142857 136.857143,38.1428571 135.571429,40.7142857 C137.714286,41.1428571 140.285714,40.7142857 142.428571,40.7142857 L142.428571,40.7142857 Z" id="Path" fill="url(#linearGradient-4)"></path>
                <line x1="147.571429" y1="32.5714286" x2="135.142857" y2="32.5714286" id="Path" stroke="#000000" stroke-width="1.5" stroke-linecap="round" stroke-linejoin="round"></line>
                <path d="M91.8571429,27 C82.8571429,23.1428571 62.7142857,15 59.7142857,14.1428571 C56.7142857,13.2857143 33.5714286,7.71428571 33.5714286,7.71428571 L26.2857143,4.71428571 C23.7142857,5.57142857 20.7142857,6.42857143 18.1428571,7.71428571 C13,9.42857143 7.42857143,10.7142857 1.85714286,12 L2.71428571,15 C2.28571429,17.1428571 2.28571429,18.8571429 2.28571429,21 C2.28571429,21.4285714 2.28571429,21.8571429 1.85714286,22.2857143 C1.42857143,22.7142857 0.571428571,22.7142857 1,25.7142857 C1,29.5714286 1.85714286,33 2.28571429,36.8571429 L12.5714286,41.5714286 C11.7142857,38.1428571 11.7142857,34.7142857 13.4285714,31.7142857 C13.8571429,31.2857143 13.8571429,30.4285714 14.2857143,30 C17.7142857,24.4285714 24.1428571,22.2857143 30.1428571,24.4285714 C35.7142857,26.1428571 39.5714286,31.7142857 39.5714286,37.7142857 C39.5714286,39 39.1428571,40.7142857 38.7142857,42 L109.428571,42 C108.142857,38.5714286 108.142857,34.7142857 109.857143,31.7142857 C103.857143,30.8571429 97.4285714,29.1428571 91.8571429,27 L91.8571429,27 Z" id="Path" fill="#FCFCFC" fill-rule="nonzero"></path>
                <path d="M148,24 C148,24 135.142857,15.4285714 108.142857,14.5714286 C108.142857,14.5714286 86.7142857,5.14285714 83.2857143,3.42857143 C68.7142857,-0.428571429 53.7142857,-0.857142857 39.1428571,1.71428571 C31.8571429,2.57142857 25,4.71428571 18.5714286,7.71428571 C13.4285714,9.42857143 7.85714286,10.7142857 2.28571429,12 L2.71428571,13.7142857 L8.28571429,13.7142857 C10.8571429,13.7142857 13.8571429,12.8571429 16,11.5714286 C22,9 28.4285714,6.85714286 32.2857143,5.57142857 C34.8571429,4.28571429 37.8571429,3.85714286 40.8571429,3.42857143 C54.5714286,1.28571429 68.7142857,2.14285714 82.4285714,5.57142857 C85.8571429,6.85714286 108.142857,18 108.142857,18 C121.857143,18 135.571429,20.5714286 148,25.7142857 C148.428571,25.2857143 148.428571,24.4285714 148,24 Z" id="Path" fill="#D3D3D3" fill-rule="nonzero"></path>
                <circle id="Oval" fill="#4F4F4F" fill-rule="nonzero" cx="122.285714" cy="36.8571429" r="13.7142857"></circle>
                <path d="M109,39.4285714 C110.714286,32.1428571 118,27.4285714 125.714286,29.1428571 C130.857143,30.4285714 135.142857,34.7142857 136,39.8571429 C137.714286,32.5714286 133,24.8571429 125.714286,23.1428571 C118.428571,21.4285714 110.714286,26.1428571 109,33.4285714 C108.142857,35.5714286 108.142857,37.7142857 109,39.4285714 C109,39.8571429 109,39.4285714 109,39.4285714 Z" id="Path" fill="#393939" fill-rule="nonzero"></path>
                <circle id="Oval" stroke="#000000" stroke-width="1.45714286" fill="#DEDEDE" fill-rule="nonzero" stroke-linejoin="round" cx="122.285714" cy="36.8571429" r="6.85714286"></circle>
                <path d="M13.4285714,41.5714286 C12.1428571,38.1428571 12.1428571,34.2857143 13.8571429,31.2857143 C16,27 19.8571429,24 25,23.5714286 C32.2857143,22.7142857 38.7142857,28.2857143 39.5714286,35.5714286 C39.5714286,37.7142857 39.5714286,39.8571429 38.7142857,41.5714286 L109.857143,41.5714286 C108.571429,38.1428571 108.571429,34.2857143 110.285714,31.2857143 C112.428571,27 116.285714,24 121.428571,23.5714286 C128.714286,22.7142857 135.142857,28.2857143 136,35.5714286 C136,37.7142857 136,39.8571429 135.142857,41.5714286 C137.285714,41.1428571 139.857143,41.1428571 142,41.1428571 C144.142857,41.1428571 148.428571,39.8571429 148.857143,37.2857143 C148.857143,37.2857143 146.714286,33.4285714 148,32.5714286 C148,32.5714286 148.857143,32.1428571 148.857143,28.7142857 C148.857143,27.4285714 148.857143,25.7142857 148,24.4285714 C148,24.4285714 135.142857,15.8571429 108.142857,15 C108.142857,15 86.7142857,5.57142857 83.2857143,3.85714286 C68.7142857,5.29354338e-13 53.7142857,-0.428571429 39.1428571,2.14285714 C31.8571429,3 25,5.14285714 18.5714286,8.14285714 C13.4285714,9.85714286 7.85714286,11.1428571 2.28571429,12.4285714 L3.14285714,15.4285714 C2.28571429,17.1428571 2.28571429,18.8571429 2.28571429,21 C2.28571429,21.4285714 2.28571429,21.8571429 1.85714286,22.2857143 C1.42857143,22.7142857 0.571428571,22.7142857 1,25.7142857 C1,29.5714286 1.85714286,33 2.28571429,36.8571429 L13.4285714,41.5714286 L13.4285714,41.5714286 Z" id="Path" stroke="#000000" stroke-width="2" stroke-linejoin="round"></path>
                <path d="M0.571428571,25.2857143 C1,29.1428571 1.42857143,32.5714286 2.28571429,36.4285714 L13,41.5714286 C11.7142857,38.1428571 11.7142857,34.2857143 13.4285714,31.2857143 C14.2857143,30 14.7142857,29.1428571 15.1428571,28.2857143 L10,24 L1.42857143,22.2857143 C1.42857143,22.2857143 0.571428571,22.2857143 0.571428571,25.2857143 L0.571428571,25.2857143 Z" id="Path" stroke="#000000" stroke-width="1.5" fill="#FFD422" fill-rule="nonzero" stroke-linecap="round" stroke-linejoin="round"></path>
                <path d="M0.571428571,25.2857143 C1,29.1428571 1.42857143,32.5714286 2.28571429,36.4285714 L13,41.5714286 C11.7142857,38.1428571 11.7142857,34.2857143 13.4285714,31.2857143 C14.2857143,30 14.7142857,29.1428571 15.1428571,28.2857143 L10,24 L1.42857143,22.2857143 C1.42857143,22.2857143 0.571428571,22.2857143 0.571428571,25.2857143 L0.571428571,25.2857143 Z M10,24 C16.8571429,15 29.2857143,13.2857143 38.2857143,19.7142857 C40.4285714,21.4285714 42.1428571,23.1428571 43.4285714,25.7142857 C46,29.1428571 50.2857143,31.7142857 54.5714286,32.5714286" id="Shape" stroke="#000000" stroke-width="1.5" stroke-linecap="round" stroke-linejoin="round"></path>
                <path d="M55,31.7142857 L105.142857,32.5714286 L55,33 C54.5714286,33 54.1428571,32.5714286 54.5714286,32.1428571 L55,31.7142857 Z" id="Path" fill="#000000" fill-rule="nonzero"></path>
                <path d="M55.8571429,4.28571429 C55.8571429,4.28571429 56.2857143,6.42857143 56.7142857,8.14285714 C57.1428571,10.2857143 57.5714286,12 58.4285714,14.1428571 C55.8571429,14.1428571 52.8571429,13.7142857 50.2857143,12.8571429 C44.7142857,10.7142857 39.1428571,9 33.1428571,7.71428571 C40.4285714,5.14285714 48.1428571,4.28571429 55.8571429,4.28571429 L55.8571429,4.28571429 Z" id="Path" stroke="#000000" stroke-width="1.5" fill="#D5D5D5" fill-rule="nonzero" stroke-linecap="round"></path>
                <path d="M40.8571429,7.71428571 C45.1428571,6.85714286 49.4285714,6.85714286 54.1428571,6.85714286 L55.4285714,12.4285714 C52.8571429,12 50.7142857,11.1428571 48.1428571,10.2857143 C45.5714286,9 43.4285714,8.14285714 40.8571429,7.71428571 L40.8571429,7.71428571 Z" id="Path" fill="#FFFFFF" fill-rule="nonzero"></path>
                <path d="M62.7142857,14.1428571 C61.8571429,12.4285714 61.4285714,10.2857143 61,8.14285714 C60.5714286,6 60.1428571,4.28571429 60.1428571,4.28571429 C66.5714286,4.28571429 73,4.71428571 79,6 C85,7.71428571 90.5714286,10.2857143 95.2857143,13.7142857 L62.7142857,14.1428571 L62.7142857,14.1428571 Z" id="Path" stroke="#000000" stroke-width="1.5" fill="#D5D5D5" fill-rule="nonzero" stroke-linecap="round"></path>
                <path d="M62.7142857,6.42857143 L64.4285714,12.4285714 L88.4285714,12.4285714 C80.7142857,7.71428571 71.7142857,6 62.7142857,6.42857143 Z" id="Path" fill="#FFFFFF" fill-rule="nonzero"></path>
                <path d="M148,24 C142.857143,22.7142857 137.714286,21.8571429 132.142857,21.4285714 C129.142857,21.4285714 131.285714,24.4285714 136,25.2857143 C136,25.2857143 138.571429,31.2857143 148.428571,29.5714286 C148.857143,27.4285714 148.428571,25.7142857 148,24 L148,24 Z" id="Path" stroke="#000000" stroke-width="1.5" fill="#FFD422" fill-rule="nonzero" stroke-linecap="round" stroke-linejoin="round"></path>
            </g>
        </g>
    </g>
</svg>