<?xml version="1.0" encoding="UTF-8"?>
<svg width="30px" height="38px" viewBox="0 0 30 38" version="1.1" xmlns="http://www.w3.org/2000/svg" xmlns:xlink="http://www.w3.org/1999/xlink">
    <!-- Generator: Sketch 64 (93537) - https://sketch.com -->
    <title>Group 2</title>
    <desc>Created with Sketch.</desc>
    <defs>
        <linearGradient x1="71.7628132%" y1="76.0244186%" x2="32.5762992%" y2="45.2543479%" id="linearGradient-1">
            <stop stop-color="#F6BE45" offset="0%"></stop>
            <stop stop-color="#DC332E" offset="100%"></stop>
        </linearGradient>
        <circle id="path-2" cx="4.98989899" cy="4.98989899" r="4.98989899"></circle>
    </defs>
    <g id="Page-1" stroke="none" stroke-width="1" fill="none" fill-rule="evenodd">
        <g id="Artboard" transform="translate(-1964.000000, -1463.000000)">
            <g id="Group-2" transform="translate(1964.000000, 1463.000000)">
                <g id="people" fill="url(#linearGradient-1)">
                    <path d="M16.6782498,25.4775614 C16.5848385,25.3825383 16.5035546,25.2852893 16.4327861,25.1868889 C16.2729815,24.9646821 15.9817716,24.8810955 15.7254087,24.9768862 C13.6572354,25.7499662 11.3019971,25.7830478 9.14402001,24.9770397 C8.88765709,24.8813258 8.59698453,24.9652961 8.43687284,25.1871959 C8.36717897,25.2837541 8.28735339,25.3793146 8.19601451,25.4729561 C8.03175803,25.6410504 7.97802928,25.8912729 8.06322773,26.1115607 C8.71948609,27.8170649 10.4487844,29.1533758 12.4436563,29.1533758 C14.4108963,29.1533758 16.2207878,27.9229873 16.8141068,26.0954421 C16.8847217,25.878992 16.8371334,25.6395153 16.6782498,25.4775614 L16.6782498,25.4775614 Z M24.0813046,5.32006778 C23.0903929,6.87206124 22.5661537,8.66660165 22.5661537,10.5087304 C22.5661537,14.288625 22.5672283,14.0355626 22.5636976,14.1151579 C22.5441249,14.5592644 21.8753555,14.5370054 21.8753555,14.0924383 L21.8753555,11.147335 C21.8753555,8.10314052 19.3984599,5.62094881 16.3489693,5.62094881 L8.51992215,5.62094881 C5.47281096,5.62094881 2.99353595,8.10030057 2.99353595,11.147335 L2.99353595,14.0924383 C2.99353595,14.5369286 2.32468971,14.5591877 2.30519384,14.1151579 C2.30158634,14.0334134 2.3025629,14.4798226 2.3025629,7.23895188 C2.3025629,4.80964461 3.50319156,2.54459382 5.5141821,1.18141856 L7.10071547,0.106075913 C7.44289088,-0.125341509 7.90825865,0.0392219909 8.03175803,0.430751102 L8.59667751,2.23910748 L13.7285411,0.0492769436 C14.0511439,-0.0873476041 14.4277057,0.0709219562 14.5475209,0.407724493 L15.1239537,2.02112224 L19.6417744,0.789198651 C20.0322289,0.68342976 20.4170035,0.976865516 20.4170035,1.38175006 L20.4170035,3.04120103 L23.7957747,4.42049492 C24.1506915,4.56571606 24.2872393,4.99669743 24.0813046,5.32006778 Z M16.3566448,6.85210484 C16.3513487,6.85210484 8.52982359,6.84673197 8.52452747,6.84673197 C6.15447534,6.84673197 4.22945082,8.76093399 4.22622709,11.1419621 C4.22622709,11.1603067 4.22269634,16.2340665 4.22392443,16.2523343 C4.28955027,20.7257136 7.93013393,24.3392026 12.4306079,24.3408145 C16.9273977,24.3408145 20.6488047,20.7148911 20.6488047,16.1264555 L20.6518788,11.1527079 C20.6550219,8.78357682 18.7376729,6.85371671 16.3566448,6.85210484 Z M6.9544965,26.6504602 C6.86354139,26.4244156 6.65706946,26.2635364 6.33776715,26.2635364 C2.83557341,26.2635364 7.67553639e-05,29.0988795 7.67553639e-05,32.6012268 L7.67553639e-05,36.2286853 C7.67553639e-05,36.5677905 0.275014469,36.8427282 0.614119666,36.8427282 L24.2547717,36.8427282 C24.5938769,36.8427282 24.8688147,36.5677905 24.8688147,36.2286853 L24.8688147,32.6012268 C24.8688147,29.2441774 22.2256669,26.2992276 18.5067928,26.2633539 C18.2428311,26.2608499 18.0051965,26.4247994 17.9138576,26.6724889 C16.1509404,31.4528898 8.98129864,31.6869936 6.9544965,26.6504602 Z" id="Shape"></path>
                </g>
                <g id="Rectangle" transform="translate(19.959596, 28.020202)">
                    <mask id="mask-3" fill="white">
                        <use xlink:href="#path-2"></use>
                    </mask>
                    <use id="Mask" fill="#FFD422" fill-rule="nonzero" xlink:href="#path-2"></use>
                    <rect fill="#FFFFFF" mask="url(#mask-3)" transform="translate(4.934393, 5.101226) rotate(-37.000000) translate(-4.934393, -5.101226) " x="-2.82767188" y="4.54679312" width="15.5241302" height="1.10886644" rx="0.554433221"></rect>
                </g>
            </g>
        </g>
    </g>
</svg>