<?xml version="1.0" encoding="UTF-8"?>
<svg width="37px" height="38px" viewBox="0 0 37 38" version="1.1" xmlns="http://www.w3.org/2000/svg" xmlns:xlink="http://www.w3.org/1999/xlink">
    <!-- Generator: Sketch 64 (93537) - https://sketch.com -->
    <title>medal</title>
    <desc>Created with Sketch.</desc>
    <defs>
        <linearGradient x1="86.9853772%" y1="76.0244186%" x2="20.3888399%" y2="45.2543479%" id="linearGradient-1">
            <stop stop-color="#F6BE45" offset="0%"></stop>
            <stop stop-color="#DC332E" offset="100%"></stop>
        </linearGradient>
        <linearGradient x1="93.9998061%" y1="170.674436%" x2="26.1832968%" y2="-29.135145%" id="linearGradient-2">
            <stop stop-color="#F6BE45" offset="0%"></stop>
            <stop stop-color="#DC332E" offset="100%"></stop>
        </linearGradient>
        <linearGradient x1="97.7652139%" y1="74.1323827%" x2="11.7583081%" y2="45.5993678%" id="linearGradient-3">
            <stop stop-color="#F6BE45" offset="0%"></stop>
            <stop stop-color="#DC332E" offset="100%"></stop>
        </linearGradient>
    </defs>
    <g id="Page-1" stroke="none" stroke-width="1" fill="none" fill-rule="evenodd">
        <g id="Artboard" transform="translate(-2064.000000, -1467.000000)">
            <g id="medal" transform="translate(2064.000000, 1467.000000)">
                <path d="M15.6033554,23.1335825 L18.1628793,27.5667872 L20.449023,31.5267092 L23.6917659,37.1434293 C23.9512532,37.5927855 24.6156396,37.5412276 24.8024211,37.0571394 L26.4728033,32.7319901 C26.6297924,32.325393 27.0492018,32.0831945 27.4798798,32.150652 L32.0606573,32.8665963 C32.573303,32.9467116 32.950262,32.3971727 32.6907747,31.9478165 L29.4480318,26.3310964 L27.1618881,22.3711744 L24.6023642,17.9379697 L15.6033554,23.1335825 Z" id="Path" fill="url(#linearGradient-1)"></path>
                <path d="M24.2243247,37.7610432 C23.8938295,37.7610432 23.5920461,37.5881545 23.4245603,37.2979486 L15.3359955,23.2881017 C15.250786,23.1403745 15.3012634,22.9515863 15.4489905,22.8663769 L24.4479994,17.6707641 C24.5188528,17.6295487 24.6029817,17.6185888 24.6823252,17.6398911 C24.76136,17.6610391 24.8288175,17.7127514 24.8697242,17.7837592 L32.958289,31.793606 C33.1384328,32.1054231 33.1236138,32.4834626 32.9200065,32.7804607 C32.7163992,33.0774587 32.3689239,33.22781 32.0131129,33.1717756 L27.4323354,32.4558313 C27.1472235,32.4113743 26.8648901,32.5742292 26.7610026,32.8432872 L25.0906203,37.1685908 C24.9609538,37.5044888 24.6573181,37.7303246 24.2984198,37.7582646 C24.273567,37.7599626 24.2487143,37.7610432 24.2243247,37.7610432 Z M16.0250802,23.2465776 L23.9592802,36.9890645 C24.0202543,37.0944957 24.1290815,37.1514563 24.2505667,37.1425031 C24.3720518,37.1330869 24.4708454,37.0596092 24.514685,36.9459967 L26.1850672,32.6208474 C26.3929967,32.0825771 26.958744,31.7570216 27.5278872,31.8457814 L32.1086647,32.5617256 C32.2287606,32.5804038 32.3420644,32.5317789 32.4109112,32.4312873 C32.4797579,32.3307958 32.4845432,32.2079214 32.4237234,32.1023358 L24.4895235,18.3598489 L16.0250802,23.2465776 Z" id="Shape" fill-rule="nonzero"></path>
                <path d="M20.5430312,23.1335825 L17.9835073,27.5669415 L15.6973636,31.5268635 L12.4546208,37.1435837 C12.1951334,37.5929398 11.530747,37.541382 11.3439656,37.0572937 L9.6735833,32.7321445 C9.51659422,32.3255474 9.09718487,32.0833489 8.66650689,32.1508064 L4.08572937,32.8667506 C3.57308364,32.946866 3.19612463,32.3973271 3.45561198,31.9479709 L6.6983548,26.3312508 L8.98449852,22.3713288 L11.5440224,17.9381241 L20.5430312,23.1335825 Z" id="Path" fill="url(#linearGradient-1)"></path>
                <path d="M11.9219076,37.7610432 C11.8973636,37.7610432 11.8726652,37.760117 11.8479669,37.7581102 C11.4890685,37.7301702 11.1854328,37.5043344 11.0557663,37.1684364 L9.38538408,32.8432872 C9.28149653,32.5740748 8.99978064,32.4107568 8.71405127,32.455677 L4.13327375,33.1716212 C3.77684527,33.2270382 3.42998741,33.0773043 3.22638014,32.7803063 C3.02277288,32.4834626 3.00810822,32.1052687 3.18809766,31.7934517 L11.2766625,17.7836048 C11.3175692,17.7127514 11.3850266,17.6610391 11.4640614,17.6397368 C11.5430962,17.6182801 11.6273795,17.6293943 11.6983873,17.6706097 L20.6973961,22.8662225 C20.8451233,22.9514319 20.8956006,23.1402202 20.8103912,23.2879474 L12.7218264,37.2977942 C12.5541861,37.5880002 12.2524028,37.7610432 11.9219076,37.7610432 L11.9219076,37.7610432 Z M8.80682455,31.8309623 C9.30912784,31.8309623 9.77654466,32.1418532 9.96131941,32.6208474 L11.6317017,36.9459967 C11.6755413,37.0596092 11.7743348,37.1330869 11.89582,37.1425031 C12.0171507,37.1513019 12.1261323,37.0944957 12.1871065,36.9890645 L20.1213064,23.2465776 L11.6570175,18.3596945 L3.72281757,32.1021814 C3.66184344,32.2076126 3.66662875,32.3306414 3.73562985,32.4309786 C3.80463095,32.5316245 3.91793476,32.5800951 4.03787626,32.5614169 L8.61865378,31.8454726 C8.68163464,31.8357477 8.74446114,31.8309623 8.80682455,31.8309623 Z" id="Shape" fill-rule="nonzero"></path>
                <path d="M30.9577203,12.5805825 C30.9577203,13.8638177 29.0354146,14.8273632 28.6595361,15.9852541 C28.2699192,17.1852866 29.245042,19.0921558 28.5181379,20.0908965 C27.7839786,21.099671 25.6642402,20.7577528 24.6553114,21.4919121 C23.6565707,22.2188163 23.3307064,24.3444205 22.1308283,24.7340375 C20.9729374,25.1099159 19.4652557,23.5940529 18.1820206,23.5940529 C16.8987854,23.5940529 15.3911037,25.1099159 14.2332128,24.7340375 C13.0331803,24.3444205 12.7074704,22.2188163 11.7087297,21.4919121 C10.6999553,20.7577528 8.58021692,21.099671 7.8460576,20.0908965 C7.11915343,19.0921558 8.09443068,17.1852866 7.70481375,15.9852541 C7.32893529,14.8273632 5.40662956,13.8638177 5.40662956,12.5807369 C5.40662956,11.2975017 7.32893529,10.3339562 7.70481375,9.17606532 C8.09443068,7.97603282 7.1193078,6.06916359 7.84621197,5.07042288 C8.58037129,4.06164845 10.7001097,4.40356664 11.7090385,3.66940732 C12.7077792,2.94250315 13.0336434,0.816898891 14.2335216,0.42728196 C15.3914124,0.0514035016 16.8990941,1.56726652 18.1823293,1.56726652 C19.4655644,1.56726652 20.9732461,0.0514035016 22.131137,0.42728196 C23.3311695,0.816898891 23.6568794,2.94250315 24.6556201,3.66940732 C25.6643945,4.40356664 27.7841329,4.06164845 28.5182922,5.07042288 C29.2451964,6.06916359 28.2699192,7.97603282 28.6595361,9.17606532 C29.0354146,10.3338018 30.9577203,11.2973474 30.9577203,12.5805825 Z" id="Path" fill="#FFD422" fill-rule="nonzero"></path>
                <path d="M2.22594142,6.68230085 C1.78492099,7.6461551 1.05338587,8.44900678 0.142787505,8.97971321 C-0.0205305277,9.07495633 -0.0205305277,9.30588618 0.142787505,9.40097494 C1.05338587,9.93152699 1.78492099,10.734533 2.22594142,11.6983873 C2.31161393,11.8856319 2.57851079,11.8856319 2.66418329,11.6983873 C3.10520372,10.734533 3.83673884,9.93152699 4.74733721,9.40097494 C4.91065524,9.30573181 4.91065524,9.07480197 4.74733721,8.97971321 C3.83673884,8.44916115 3.10520372,7.6461551 2.66418329,6.68230085 C2.57851079,6.4949019 2.31161393,6.4949019 2.22594142,6.68230085 Z" id="Path" fill="#FFEA92" fill-rule="nonzero"></path>
                <path d="M33.3945241,15.9880327 C32.8142666,17.2559857 31.8518016,18.3124589 30.6539302,19.0106512 C30.4390543,19.1358411 30.4390543,19.4397855 30.6539302,19.5649754 C31.851956,20.2630134 32.8144209,21.3193322 33.3945241,22.5874396 C33.5072105,22.8338059 33.8583905,22.8338059 33.9710769,22.5874396 C34.5513344,21.3193322 35.513645,20.262859 36.7116708,19.5649754 C36.9265467,19.4397855 36.9265467,19.1358411 36.7116708,19.0106512 C35.513645,18.3126132 34.5511801,17.2561401 33.9710769,15.9880327 C33.8582362,15.7416663 33.5072105,15.7416663 33.3945241,15.9880327 Z" id="Path" fill="#FFEA92" fill-rule="nonzero"></path>
                <path d="M31.3089004,0.615298371 C30.9935329,1.30469188 30.470236,1.8789292 29.8189706,2.25851241 C29.7021164,2.32658732 29.7021164,2.49175773 29.8189706,2.55983264 C30.470236,2.93926149 30.9935329,3.51365317 31.3089004,4.20304668 C31.3701832,4.33703538 31.5609782,4.33703538 31.622261,4.20304668 C31.9376285,3.51365317 32.4609254,2.93941585 33.1121908,2.55983264 C33.229045,2.49175773 33.229045,2.32658732 33.1121908,2.25851241 C32.4609254,1.8789292 31.9376285,1.30469188 31.622261,0.615298371 C31.5611326,0.481464029 31.3701832,0.481464029 31.3089004,0.615298371 L31.3089004,0.615298371 Z" id="Path" fill="#FFEA92" fill-rule="nonzero"></path>
                <path d="M17.7675509,15.8046472 C16.83812,15.6643295 16.1647804,15.0888573 16.0885242,14.1483121 C16.0806516,14.0502904 16.1599951,13.9669334 16.2583255,13.9669334 L16.9937198,13.9669334 C17.0776943,13.9669334 17.1473128,14.0288337 17.16136,14.1115733 C17.2170858,14.4388268 17.3807125,14.6946094 17.6655157,14.8296787 C17.7791282,14.883552 17.9108015,14.8025105 17.9108015,14.6768575 L17.9108015,12.9005809 C17.9108015,12.824479 17.8601698,12.7577934 17.7868465,12.7371085 C16.9512694,12.5007759 16.081269,12.1922005 16.081269,10.8870455 C16.081269,9.84724377 16.7654141,9.11786976 17.7687858,8.96196125 C17.8507535,8.94914896 17.9108015,8.87783239 17.9108015,8.79493846 L17.9108015,8.31717919 C17.9108015,8.22332534 17.9869034,8.14737783 18.0806028,8.14737783 L18.3072105,8.14737783 C18.4010643,8.14737783 18.4770118,8.22347971 18.4770118,8.31717919 L18.4770118,8.78475038 C18.4770118,8.86764431 18.5369054,8.93957834 18.6188731,8.95192753 C19.484397,9.08252021 20.0825608,9.62156233 20.2162408,10.548369 C20.2309055,10.6502498 20.150327,10.7414795 20.04752,10.7414795 L19.3192266,10.7414795 C19.2378763,10.7414795 19.1704188,10.6832839 19.1526669,10.603786 C19.0983304,10.3595808 18.9586302,10.1380672 18.7429825,9.99666897 C18.6287525,9.92180201 18.4770118,10.0006825 18.4770118,10.1372954 L18.4770118,11.8451883 C18.4770118,11.9219076 18.5285697,11.9890563 18.6026648,12.0091238 C19.4370069,12.2361945 20.2978998,12.5364342 20.2978998,13.840663 C20.2978998,14.7444693 19.70483,15.6214161 18.6190275,15.7946135 C18.5370598,15.8077345 18.4770118,15.8787423 18.4770118,15.9616363 L18.4770118,16.4397043 C18.4770118,16.5335581 18.4009099,16.6095056 18.3072105,16.6095056 L18.0806028,16.6095056 C17.986749,16.6095056 17.9108015,16.5334037 17.9108015,16.4397043 L17.9108015,15.9719787 C17.9108015,15.8886217 17.8499817,15.8171507 17.7675509,15.8046472 L17.7675509,15.8046472 Z M17.9108015,11.5562172 L17.9108015,10.0625828 C17.9108015,9.9477353 17.7978064,9.8625259 17.6894423,9.90049965 C17.3303896,10.0266158 17.0918958,10.3321038 17.0918958,10.8286956 C17.0918958,11.2883942 17.3237519,11.5410895 17.6644351,11.7082666 C17.7778933,11.7639924 17.9108015,11.6826421 17.9108015,11.5562172 L17.9108015,11.5562172 Z M18.4771662,13.1898607 L18.4771662,14.6814884 C18.4771662,14.8048259 18.6042085,14.8858675 18.7173579,14.8367795 C19.089686,14.6748507 19.2962262,14.3207377 19.2962262,13.8990129 C19.2962262,13.4468782 19.0639071,13.2019011 18.722452,13.0373482 C18.6089938,12.9825486 18.4771662,13.0640533 18.4771662,13.1898607 Z" id="Shape" fill="url(#linearGradient-2)"></path>
                <path d="M22.6626153,8.15494171 C22.5936142,8.08578625 22.522452,8.01802007 22.4494374,7.95179754 C21.3140838,6.92048584 19.8490068,6.35257749 18.324345,6.35257749 C17.0449689,6.35257749 15.8055734,6.74697973 14.7401471,7.49287078 C14.291254,7.80715766 13.8837308,8.18118373 13.5285372,8.60445221 C12.5750254,9.74073201 12.0531178,11.1806475 12.0589347,12.6591542 C12.0596011,12.8383719 12.1324613,13.0132673 12.261356,13.1423163 L12.2821952,13.1619206 C12.406922,13.2750701 12.5685421,13.3374335 12.7375716,13.3374335 C12.7585652,13.3374335 12.7794045,13.3365073 12.8005525,13.3345005 C12.9186416,13.3233863 13.0322541,13.2817078 13.1290409,13.2139416 C13.3150506,13.0836576 13.4254215,12.8698623 13.4246496,12.6421741 C13.4206361,11.4892229 13.828005,10.3662185 14.5718893,9.47970102 C14.849283,9.14905147 15.1675834,8.85699313 15.5178373,8.61170736 C16.3446155,8.03268473 17.3109396,7.72673356 18.3121501,7.72673356 C19.4627859,7.72673356 20.5735955,8.13981395 21.4403542,8.89002722 C21.5283422,8.96628346 21.6144778,9.04639883 21.6961368,9.12805785 C23.4216273,10.8535484 23.563643,13.6162164 22.0264776,15.554113 C21.7283991,15.9296827 21.380615,16.2578625 20.9928505,16.5293903 C20.1708575,17.1050169 19.2037616,17.40927 18.1963765,17.40927 C17.2294349,17.40927 16.3034001,17.1273998 15.5166023,16.593606 L15.5567372,16.5457529 C15.6475038,16.4373888 15.6671081,16.2850307 15.6062883,16.1573709 C15.5882276,16.1197059 15.5644555,16.0859 15.5354349,16.0570338 C15.4684405,15.9900394 15.3786002,15.9531462 15.2754844,15.9531462 C15.2754844,15.9531462 14.1526344,15.9732136 14.1526344,15.9732136 C14.080546,15.9746029 14.0110818,15.9971402 13.9516513,16.03851 C13.8371126,16.1187797 13.7795345,16.2541577 13.8012999,16.3920055 L13.976504,17.5008084 C13.9885445,17.5769103 14.0232766,17.6456026 14.0769956,17.6993216 C14.1097209,17.732047 14.1480034,17.7578259 14.1906081,17.7758866 C14.2359914,17.7951822 14.2838445,17.8049072 14.3326238,17.8049072 C14.4065646,17.8049072 14.4778811,17.7823699 14.5388553,17.7396108 C14.5646342,17.7215501 14.5880977,17.7000934 14.6090913,17.6752407 L14.6313198,17.6486899 C15.6706585,18.3890238 16.8994029,18.7803388 18.1864971,18.7803388 L18.1868059,18.7803388 C19.4737458,18.7803388 20.712987,18.3888695 21.7703863,17.6483812 C22.2643539,17.3024495 22.7070723,16.88551 23.0865012,16.4089857 C25.0651501,13.9237113 24.8829996,10.375326 22.6626153,8.15494171 Z" id="Path" fill="#FFFFFF" fill-rule="nonzero"></path>
                <g id="Group" transform="translate(5.094041, 0.000000)" fill-rule="nonzero">
                    <path d="M16.6426941,25.1028151 C16.0295568,25.1028151 15.3898688,24.7877564 14.7668522,24.4808791 C14.1898363,24.1966933 13.5930617,23.9027826 13.0879799,23.9027826 C12.582898,23.9027826 11.9861234,24.1966933 11.4092619,24.4808791 C10.6181419,24.8703416 9.80016249,25.2730796 9.04392899,25.0276394 C8.2529634,24.7707763 7.82043303,23.9432262 7.40210424,23.1428444 C7.11344193,22.5905269 6.81490027,22.0193769 6.43315595,21.7415201 C6.04400211,21.4582606 5.40246171,21.3486615 4.7820693,21.2424585 C3.89848479,21.0913353 2.98479912,20.935118 2.5024089,20.2724296 C2.02557582,19.6171507 2.15709469,18.7053175 2.28429134,17.823431 C2.37474916,17.1957834 2.46844863,16.5468335 2.3170167,16.0804972 C2.17515538,15.6431815 1.75018889,15.2098794 1.3002153,14.751107 C0.662842751,14.1010765 0.00370475688,13.4288175 0.00370475688,12.5805825 C0.00370475688,11.7323476 0.662842751,11.0600886 1.3002153,10.4100581 C1.75018889,9.9512857 2.17500102,9.51782914 2.3170167,9.08066783 C2.46844863,8.61433156 2.37490352,7.96522728 2.28444571,7.33757972 C2.15724906,6.45584759 2.02573019,5.54385993 2.50256327,4.88873543 C2.98495349,4.22604704 3.89863915,4.06967543 4.78222367,3.91870658 C5.40261608,3.81265792 6.04415648,3.7029045 6.43331031,3.41979933 C6.81505464,3.14194256 7.1135963,2.57079254 7.4022586,2.01847504 C7.8205874,1.21809319 8.25327213,0.390543121 9.04408336,0.133679977 C9.80016249,-0.111914531 10.6182963,0.29097778 11.4094163,0.680440346 C11.9864321,0.964626071 12.5830524,1.25853678 13.0881342,1.25853678 C13.5932161,1.25853678 14.1899907,0.964626071 14.7668522,0.680440346 C15.5579721,0.290823415 16.3761059,-0.111914531 17.1321851,0.133679977 C17.9231507,0.390543121 18.355681,1.21809319 18.7740098,2.01847504 C19.0626721,2.57079254 19.3612138,3.14194256 19.7429581,3.41979933 C20.132112,3.7029045 20.7736524,3.81265792 21.3938904,3.91870658 C22.2776293,4.06982979 23.1913149,4.22604704 23.6737052,4.88873543 C24.1505382,5.5440143 24.0190194,6.45584759 23.8918227,7.33773409 C23.8012105,7.96538165 23.7076654,8.61433156 23.8590974,9.0808222 C24.0009587,9.51813787 24.4259252,9.95144006 24.8758988,10.4102125 C25.5132713,11.0602429 26.1724093,11.7323476 26.1724093,12.5807369 C26.1724093,13.4291262 25.5132713,14.1012309 24.8758988,14.7512613 C24.4259252,15.2100337 24.0011131,15.6434903 23.8590974,16.0806516 C23.7076654,16.5469879 23.8012105,17.1960921 23.8918227,17.8237397 C24.0190194,18.7056262 24.1505382,19.6176138 23.6737052,20.2727384 C23.1913149,20.9354267 22.2776293,21.091644 21.3940448,21.2427672 C20.7736524,21.3488159 20.132112,21.4584149 19.7429581,21.7416745 C19.3610594,22.0195312 19.0626721,22.5906812 18.7738555,23.1429987 C18.3555267,23.9433806 17.9229963,24.7709307 17.1320307,25.0277938 C16.9714912,25.0798148 16.8080188,25.1028151 16.6426941,25.1028151 L16.6426941,25.1028151 Z M13.0879799,23.2853232 C13.7369298,23.2853232 14.3991551,23.6114961 15.0396149,23.9270179 C15.751237,24.2775805 16.4231872,24.6083844 16.9413901,24.4404355 C17.4924727,24.2615266 17.8657269,23.5474347 18.226632,22.8569606 C18.5483284,22.2416623 18.8808303,21.6053703 19.3795832,21.2424585 C19.8855913,20.8741439 20.5995288,20.7521956 21.2898485,20.6341065 C22.0868343,20.4978023 22.8396718,20.369062 23.1743348,19.9093634 C23.5034407,19.4570744 23.3952309,18.7065524 23.2805378,17.9117277 C23.1798919,17.2141528 23.07585,16.4929601 23.2715847,15.8898566 C23.4583662,15.3146931 23.9548036,14.8083763 24.4348783,14.3188853 C24.9854978,13.7573059 25.5547955,13.1767397 25.5547955,12.5807369 C25.5547955,11.9847341 24.9854978,11.4040135 24.4348783,10.8425885 C23.954958,10.3530975 23.4585205,9.84678068 23.271739,9.27161718 C23.07585,8.66851363 23.1800463,7.94716659 23.2806922,7.24974611 C23.3953853,6.45507576 23.5035951,5.70455376 23.1744892,5.2522647 C22.8399805,4.79256611 22.087143,4.66382581 21.2900028,4.52752163 C20.5995288,4.40943251 19.8857456,4.28732989 19.3797376,3.91916968 C18.8809847,3.55610351 18.5484828,2.91981151 18.2267864,2.30451314 C17.8658813,1.61403908 17.492627,0.899947191 16.9413901,0.721038307 C16.423496,0.552471869 15.7513913,0.884047609 15.0396149,1.23445586 C14.3991551,1.54982329 13.7369298,1.87599626 13.0879799,1.87599626 C12.4390299,1.87599626 11.7768046,1.54982329 11.1363448,1.23445586 C10.4247228,0.883893245 9.75215501,0.552626234 9.23456961,0.721038307 C8.68333266,0.899947191 8.31023277,1.61403908 7.94917334,2.30451314 C7.62763131,2.91981151 7.29497502,3.55610351 6.79622212,3.91901531 C6.29021408,4.28717553 5.57643092,4.40927814 4.88595686,4.52736727 C4.08881667,4.66367145 3.3359792,4.79241175 3.00147053,5.25211033 C2.67236463,5.7043994 2.7805744,6.4549214 2.8952675,7.24959175 C2.99591339,7.94716659 3.09995532,8.66835926 2.9040663,9.27146281 C2.7172848,9.84662632 2.22100175,10.3529431 1.740927,10.8424341 C1.19030751,11.4040135 0.621009871,11.9845798 0.621009871,12.5807369 C0.621009871,13.1767397 1.19030751,13.7574603 1.740927,14.3188853 C2.22100175,14.8085307 2.71743917,15.3146931 2.90422066,15.890011 C3.09995532,16.4931145 2.99591339,17.2143072 2.8952675,17.9117277 C2.7805744,18.706398 2.67236463,19.4570744 3.00147053,19.9092091 C3.3359792,20.3689077 4.08881667,20.497648 4.88595686,20.6339521 C5.57643092,20.7520413 6.29036844,20.8741439 6.79622212,21.2423041 C7.29497502,21.6052159 7.62747695,22.2415079 7.94917334,22.8568063 C8.3100784,23.5474347 8.68333266,24.2613722 9.23456961,24.4402811 C9.75246374,24.6090019 10.4247228,24.2774262 11.1363448,23.9268635 C11.7768046,23.6113418 12.4390299,23.2853232 13.0879799,23.2853232 L13.0879799,23.2853232 Z" id="Shape"></path>
                </g>
            </g>
        </g>
    </g>
</svg>