<?xml version="1.0" encoding="UTF-8"?>
<svg width="38px" height="41px" viewBox="0 0 38 41" version="1.1" xmlns="http://www.w3.org/2000/svg" xmlns:xlink="http://www.w3.org/1999/xlink">
    <!-- Generator: Sketch 64 (93537) - https://sketch.com -->
    <title>education</title>
    <desc>Created with Sketch.</desc>
    <defs>
        <linearGradient x1="97.7652139%" y1="70.5625036%" x2="11.7583081%" y2="46.2503489%" id="linearGradient-1">
            <stop stop-color="#F6BE45" offset="0%"></stop>
            <stop stop-color="#DC332E" offset="100%"></stop>
        </linearGradient>
        <linearGradient x1="69.6570264%" y1="76.0244186%" x2="34.26223%" y2="45.2543479%" id="linearGradient-2">
            <stop stop-color="#F6BE45" offset="0%"></stop>
            <stop stop-color="#DC332E" offset="100%"></stop>
        </linearGradient>
        <linearGradient x1="97.7652139%" y1="51.6265262%" x2="11.7583081%" y2="49.7033967%" id="linearGradient-3">
            <stop stop-color="#F6BE45" offset="0%"></stop>
            <stop stop-color="#DC332E" offset="100%"></stop>
        </linearGradient>
    </defs>
    <g id="Page-1" stroke="none" stroke-width="1" fill="none" fill-rule="evenodd">
        <g id="Artboard" transform="translate(-2004.000000, -1457.000000)">
            <g id="education" transform="translate(2004.000000, 1457.000000)">
                <path d="M4.22222222,9.14814815 L0,9.14814815 L0,6.33333333 C0,4.77876389 1.26024537,3.51851852 2.81481481,3.51851852 L6.33333333,3.51851852 L6.33333333,9.14814815 L4.22222222,9.14814815 Z" id="Path" fill="url(#linearGradient-1)"></path>
                <path d="M3.51851852,3.51851852 C5.07308796,3.51851852 6.33333333,4.77876389 6.33333333,6.33333333 L6.33333333,38 C6.33333333,39.5545694 7.5935787,40.8148148 9.14814815,40.8148148 L27.4444444,40.8148148 L27.4444444,3.51851852 L3.51851852,3.51851852 Z" id="Path" fill="url(#linearGradient-2)"></path>
                <path d="M35.1851852,7.74074074 C35.1851852,8.69777778 33.6440741,9.33814815 33.2992593,10.1614815 C32.9544444,10.9848148 33.5666667,12.5611111 32.9192593,13.2085185 C32.2718519,13.8559259 30.7307407,13.2085185 29.8722222,13.5885185 C29.0137037,13.9685185 28.4014815,15.4814815 27.4444444,15.4814815 C26.4874074,15.4814815 25.847037,13.9403704 25.0237037,13.5955556 C24.2003704,13.2507407 22.6240741,13.862963 21.9766667,13.2155556 C21.3292593,12.5681481 21.9766667,11.027037 21.5966667,10.1685185 C21.2166667,9.31 19.7037037,8.69777778 19.7037037,7.74074074 C19.7037037,6.7837037 21.2448148,6.14333333 21.5896296,5.32 C21.9344444,4.49666667 21.3222222,2.92037037 21.9696296,2.27296296 C22.617037,1.62555556 24.1581481,2.27296296 25.0166667,1.89296296 C25.8751852,1.51296296 26.4874074,0 27.4444444,0 C28.4014815,0 29.0418519,1.54111111 29.8651852,1.88592593 C30.6885185,2.23074074 32.2648148,1.61851852 32.9122222,2.26592593 C33.5596296,2.91333333 32.9122222,4.45444444 33.2922222,5.31296296 C33.6722222,6.17148148 35.1851852,6.7837037 35.1851852,7.74074074 Z" id="Path" fill="#FFD422" fill-rule="nonzero"></path>
                <path d="M29.5555556,40.8148148 C31.110125,40.8148148 32.3703704,39.5545694 32.3703704,38 L32.3703704,35.1851852 L12.6666667,35.1851852 L12.6666667,38 C12.6666667,39.5545694 11.4064213,40.8148148 9.85185185,40.8148148 L29.5555556,40.8148148 Z" id="Path" fill="url(#linearGradient-3)"></path>
                <polygon id="Path" fill="#F40E34" fill-rule="nonzero" points="19.7037037 12.6666667 16.8888889 15.4814815 19.7037037 15.4814815 19.7037037 18.2962963 22.5185185 15.4814815"></polygon>
                <circle id="Oval" fill="#E7B900" fill-rule="nonzero" cx="27.4444444" cy="7.74074074" r="3.51851852"></circle>
                <circle id="Oval-Copy" fill="#E7B900" fill-rule="nonzero" cx="27.4444444" cy="7.74074074" r="3.51851852"></circle>
                <g id="Group" transform="translate(21.814815, 2.111111)" fill="#FFFFFF" fill-rule="nonzero">
                    <path d="M3.82093519,1.81353241 L3.21618981,0.542203704 C3.97346296,0.182435185 4.78571296,0 5.62962963,0 L5.62962963,1.40740741 C4.99603241,1.40740741 4.38715278,1.54418981 3.82093519,1.81353241 Z" id="Path"></path>
                    <path d="M1.40740741,5.62962963 L0,5.62962963 C0,4.10435185 0.599907407,2.67600926 1.68985648,1.60840278 L2.67530556,2.61381944 C1.85751389,3.41472222 1.40740741,4.48575926 1.40740741,5.62962963 Z" id="Path"></path>
                    <path d="M5.62962963,11.2592593 L5.62962963,9.85185185 C7.00959259,9.85185185 8.30493519,9.1753287 9.09519444,8.04210185 L10.2497083,8.84749074 C9.19626389,10.3576389 7.46928704,11.2592593 5.62962963,11.2592593 Z" id="Path"></path>
                    <path d="M11.2022593,6.43334722 L9.80857407,6.23340741 C9.83742593,6.03443519 9.85185185,5.8313287 9.85185185,5.62962963 L11.2592593,5.62962963 C11.2592593,5.89800463 11.2399954,6.16840278 11.2022593,6.43334722 Z" id="Path"></path>
                </g>
                <polygon id="Path" fill="#F40E34" fill-rule="nonzero" points="35.1851852 12.6666667 38 15.4814815 35.1851852 15.4814815 35.1851852 18.2962963 32.3703704 15.4814815"></polygon>
                <g id="Group" transform="translate(8.444444, 6.333333)" fill="#FFFFFF" fill-rule="nonzero">
                    <rect id="Rectangle" x="0" y="21.8148148" width="16.8888889" height="4.22222222"></rect>
                    <rect id="Rectangle" x="0" y="0" width="9.14814815" height="3.51851852"></rect>
                    <rect id="Rectangle" x="0" y="18.2962963" width="16.8888889" height="1.40740741"></rect>
                    <rect id="Rectangle" x="0" y="15.4814815" width="16.8888889" height="1.40740741"></rect>
                    <rect id="Rectangle" x="0" y="12.6666667" width="9.14814815" height="1.40740741"></rect>
                    <rect id="Rectangle" x="13.3703704" y="12.6666667" width="3.51851852" height="1.40740741"></rect>
                    <rect id="Rectangle" x="0" y="9.85185185" width="5.62962963" height="1.40740741"></rect>
                    <rect id="Rectangle" x="0" y="7.03703704" width="5.62962963" height="1.40740741"></rect>
                </g>
            </g>
        </g>
    </g>
</svg>