<?xml version="1.0" encoding="UTF-8"?>
<svg width="50px" height="37px" viewBox="0 0 50 37" version="1.1" xmlns="http://www.w3.org/2000/svg" xmlns:xlink="http://www.w3.org/1999/xlink">
    <!-- Generator: Sketch 64 (93537) - https://sketch.com -->
    <title>people (1)</title>
    <desc>Created with Sketch.</desc>
    <defs>
        <linearGradient x1="97.7652139%" y1="76.0244186%" x2="11.7583081%" y2="45.2543479%" id="linearGradient-1">
            <stop stop-color="#F6BE45" offset="0%"></stop>
            <stop stop-color="#DC332E" offset="100%"></stop>
        </linearGradient>
        <linearGradient x1="116.815593%" y1="70.1086982%" x2="14.9820907%" y2="25.4159752%" id="linearGradient-2">
            <stop stop-color="#F6BE45" offset="0%"></stop>
            <stop stop-color="#DC332E" offset="100%"></stop>
            <stop stop-color="#DC332E" offset="100%"></stop>
        </linearGradient>
    </defs>
    <g id="Page-1" stroke="none" stroke-width="1" fill="none" fill-rule="evenodd">
        <g id="Artboard" transform="translate(-1897.000000, -1467.000000)">
            <g id="people-(1)" transform="translate(1897.000000, 1467.000000)">
                <g id="Group" transform="translate(17.440748, 7.818267)">
                    <polygon id="Path" fill="#FFD422" fill-rule="nonzero" transform="translate(3.980953, 5.678455) rotate(-45.000000) translate(-3.980953, -5.678455) " points="-0.153283528 4.28235326 8.11518894 4.28235326 8.11518894 7.0745562 -0.153283528 7.0745562"></polygon>
                    <path d="M7.2127518,5.03275849 L4.63071916,2.45072585 C4.08544519,1.90545188 4.08544519,1.02128612 4.63071916,0.47601215 C5.17599314,-0.0692618226 6.06015889,-0.0692618226 6.60543287,0.47601215 L9.1874655,3.05804478 C9.73273947,3.60331876 9.73273947,4.48748451 9.1874655,5.03275849 C8.64219153,5.57803246 7.75812601,5.57803246 7.2127518,5.03275849 L7.2127518,5.03275849 Z" id="Path" fill="url(#linearGradient-1)"></path>
                </g>
                <path d="M7.16463939,30.3988235 C4.04444941,30.3988235 1.63842801,27.6480967 2.05079145,24.5523639 L2.05079145,24.5523639 L2.73869867,19.3882986 C3.08039701,16.8228046 5.26680531,14.9068282 7.85254661,14.9068282 L7.85254661,14.9068282 L11.6131328,14.9068282 L13.7272723,7.08775977 C14.8457855,2.95109491 18.5987539,0.078082431 22.8838656,0.078082431 L22.8838656,0.078082431 L36.5337571,0.0779821968 C40.8188688,0.0779821968 44.5719374,2.95099467 45.6903505,7.08765954 C46.6338549,10.5771123 47.3173518,13.068433 47.8198258,14.9068282 C49.5263128,21.1500147 49.1455231,19.8619052 49.7702828,24.5522637 C50.1826462,27.6479965 47.7765246,30.3987233 44.6564348,30.3987233 L44.6564348,30.3987233 Z M21.9905786,4.67001097 C20.1297309,5.00910322 18.5888308,6.38872656 18.0815455,8.26491005 L18.0815455,8.26491005 L16.2856496,14.9068282 L29.5754999,14.9067279 C30.4058399,14.9067279 31.0790127,14.2335551 31.0790127,13.4032151 L31.0790127,13.4032151 L31.0790127,6.09203336 C31.0790127,5.26169337 30.4058399,4.58852057 29.5754999,4.58852057 L29.5754999,4.58852057 L22.8838656,4.58852057 C22.5799556,4.58852057 22.2812577,4.61618521 21.9903781,4.66910886 L21.9903781,4.66910886 Z M36.5338573,4.58852057 L36.4236339,4.59487372 C35.9540113,4.64942256 35.5895511,5.04855969 35.5895511,5.53282684 L35.5895511,5.53282684 L35.5895511,13.4033154 C35.5895511,14.2336554 36.2627239,14.9068282 37.0930639,14.9068282 L37.0930639,14.9068282 L41.1679845,14.9068282 C42.1579975,14.9068282 42.8777792,13.9666315 42.6193755,13.0108985 L42.6193755,13.0108985 L41.3361774,8.26491005 C40.75091,6.10025257 38.7761963,4.58852057 36.5338573,4.58852057 L36.5338573,4.58852057 Z" id="Combined-Shape" fill="url(#linearGradient-2)"></path>
                <path d="M2.50585465,28.39424 L9.136747,28.39424 L9.136747,33.4059493 L2.50585465,33.4059493 C1.12192125,33.4059493 0,32.2840281 0,30.9000947 C0,29.5161613 1.12192125,28.39424 2.50585465,28.39424 Z" id="Path" fill="#FFD422" fill-rule="nonzero"></path>
                <path d="M47.3105359,28.39424 L40.6796435,28.39424 L40.6796435,33.4059493 L47.3105359,33.4059493 C48.6944693,33.4059493 49.8163905,32.2840281 49.8163905,30.9000947 C49.8163905,29.5161613 48.6944693,28.39424 47.3105359,28.39424 Z" id="Path" fill="#FFD422" fill-rule="nonzero"></path>
                <g id="Group" transform="translate(5.312412, 23.855736)" fill-rule="nonzero">
                    <g id="Path">
                        <path d="M9.01375966,0.4975625 L6.57055137,0.4975625 L0.0553292707,6.53737385 L6.57055137,12.5771852 L9.01375966,12.5771852 C11.4010373,11.6104265 13.0857735,9.27136151 13.0857735,6.53737385 C13.0857735,3.80338619 11.4010373,1.46432123 9.01375966,0.4975625 Z" fill="#E87339"></path>
                        <path d="M4.94174584,6.53737385 C4.94174584,9.27136151 6.62648204,11.6105267 9.01375966,12.5771852 C8.25909647,12.8827992 7.43487076,13.052596 6.57055137,13.052596 C2.97234456,13.052596 0.0553292707,10.1356809 0.0553292707,6.53737385 C0.0553292707,2.93906681 2.97224432,0.0221517551 6.57055137,0.0221517551 C7.43487076,0.0221517551 8.25909647,0.191948466 9.01375966,0.4975625 C6.62648204,1.46432123 4.94174584,3.80348643 4.94174584,6.53737385 Z" fill="#E97C3A"></path>
                        <path d="M8.14322575,6.11639027 C7.91088291,5.24916409 7.01639303,4.73275757 6.14916685,4.96510041 C5.28194067,5.19744325 4.76553415,6.09193313 4.99787699,6.95915931 C5.23021983,7.82648572 6.12470971,8.34279201 6.99193589,8.11044917 C7.85916207,7.87810633 8.37556859,6.98351622 8.14322575,6.11639027 L8.14322575,6.11639027 Z" fill="#FFFFFF"></path>
                    </g>
                    <g transform="translate(26.060888, 0.000000)" id="Path">
                        <path d="M9.00243319,0.4975625 L6.55922491,0.4975625 L0.0440028077,6.53737385 L6.55922491,12.5771852 L9.00243319,12.5771852 C11.3897108,11.6104265 13.074447,9.27136151 13.074447,6.53737385 C13.074447,3.80338619 11.3897108,1.46432123 9.00243319,0.4975625 Z" fill="#E97C3A"></path>
                        <path d="M4.93041938,6.53737385 C4.93041938,9.27136151 6.61515558,11.6105267 9.00243319,12.5771852 C8.24777001,12.8827992 7.42354429,13.052596 6.55922491,13.052596 C2.96101809,13.052596 0.0440028077,10.1356809 0.0440028077,6.53737385 C0.0440028077,2.93906681 2.96101809,0.0221517551 6.55922491,0.0221517551 C7.42354429,0.0221517551 8.24777001,0.191948466 9.00243319,0.4975625 C6.61515558,1.46432123 4.93041938,3.80348643 4.93041938,6.53737385 Z" fill="#E87339"></path>
                        <path d="M8.13189929,6.11639027 C7.89955644,5.24916409 7.00506657,4.73275757 6.13784039,4.96510041 C5.27061421,5.19744325 4.75420768,6.09193313 4.98655053,6.95915931 C5.21889337,7.82648572 6.11338325,8.34279201 6.98060942,8.11044917 C7.8478356,7.87810633 8.36424213,6.98351622 8.13189929,6.11639027 Z" fill="#FFFFFF"></path>
                    </g>
                </g>
            </g>
        </g>
    </g>
</svg>