<?xml version="1.0" encoding="UTF-8"?>
<svg width="107px" height="60px" viewBox="0 0 107 60" version="1.1" xmlns="http://www.w3.org/2000/svg" xmlns:xlink="http://www.w3.org/1999/xlink">
    <!-- Generator: Sketch 64 (93537) - https://sketch.com -->
    <title>Group 3 Copy 2</title>
    <desc>Created with Sketch.</desc>
    <defs>
        <linearGradient x1="116.815593%" y1="59.0119421%" x2="14.9820907%" y2="38.9823893%" id="linearGradient-1">
            <stop stop-color="#F6BE45" offset="0%"></stop>
            <stop stop-color="#DC332E" offset="100%"></stop>
            <stop stop-color="#DC332E" offset="100%"></stop>
        </linearGradient>
        <linearGradient x1="116.815593%" y1="59.0119421%" x2="14.9820907%" y2="38.9823893%" id="linearGradient-2">
            <stop stop-color="#F6BE45" offset="0%"></stop>
            <stop stop-color="#DC332E" offset="100%"></stop>
            <stop stop-color="#DC332E" offset="100%"></stop>
        </linearGradient>
        <linearGradient x1="116.815593%" y1="59.0119421%" x2="14.9820907%" y2="38.9823893%" id="linearGradient-3">
            <stop stop-color="#F6BE45" offset="0%"></stop>
            <stop stop-color="#DC332E" offset="100%"></stop>
            <stop stop-color="#DC332E" offset="100%"></stop>
        </linearGradient>
    </defs>
    <g id="Page-1" stroke="none" stroke-width="1" fill="none" fill-rule="evenodd">
        <g id="Artboard" transform="translate(-2393.000000, -1755.000000)">
            <g id="Group-3-Copy-2" transform="translate(2393.000000, 1755.000000)">
                <g id="person-copy-3" transform="translate(84.000000, 20.000000)">
                    <path d="M22.8556034,7.24137931 C22.8556034,7.52715517 22.6241379,7.75862069 22.3383621,7.75862069 L18.0064655,7.75862069 L18.0064655,11.25 C18.0064655,12.1428879 17.2829741,12.8663793 16.3900862,12.8663793 L16.3900862,13.06875 C16.3900862,15.737069 14.7575431,18.0239224 12.4364224,18.9846983 L12.4461207,19.0086207 C12.4461207,19.4593319 12.3379526,20.6571336 13.4612069,21.5456897 C13.9118534,21.9019397 14.480819,22.1172414 15.0989224,22.1230603 C17.7646552,22.1482759 19.9461207,24.2534483 19.9461207,26.919181 L19.9461207,29.4827586 C19.9461207,29.7685345 19.7146552,30 19.4288793,30 L0.549568966,30 C0.263793103,30 0.0323275862,29.7685345 0.0323275862,29.4827586 L0.0323275862,26.919181 C0.0323275862,24.2534483 2.2137931,22.1482759 4.87952586,22.1230603 C6.33969828,22.1092888 7.53232759,20.9264224 7.53232759,19.4502155 L7.53232759,19.0086207 L7.54202586,18.9846983 C5.22090517,18.0239224 3.58836207,15.737069 3.58836207,13.06875 L3.58836207,12.8663793 C2.66689655,12.8663793 1.97198276,12.1382328 1.97198276,11.2797414 L1.97198276,6.20689655 C1.97198276,2.77887931 4.75086207,4.99600361e-15 8.17887931,4.99600361e-15 L11.799569,4.99600361e-15 C15.2275862,4.99600361e-15 18.0064655,2.77887931 18.0064655,6.20689655 L18.0064655,6.72413793 L22.3383621,6.72413793 C22.6241379,6.72413793 22.8556034,6.95560345 22.8556034,7.24137931 Z" id="Path" fill="#FFDFBA" fill-rule="nonzero"></path>
                    <path d="M18.0064655,7.75862069 L18.0064655,11.25 C18.0064655,12.1428879 17.2829741,12.8663793 16.3900862,12.8663793 C16.3900862,12.0439655 16.3900862,9.31422414 16.3900862,7.75862069 L18.0064655,7.75862069 Z" id="Path" fill="#FFE773" fill-rule="nonzero"></path>
                    <path d="M22.8556034,7.24137931 C22.8556034,7.52715517 22.6241379,7.75862069 22.3383621,7.75862069 L1.97198276,7.75862069 L1.97198276,6.20689655 C1.97198276,2.77887931 4.75086207,0 8.17887931,0 L11.799569,0 C15.2275862,0 18.0064655,2.77887931 18.0064655,6.20689655 L18.0064655,6.72413793 L22.3383621,6.72413793 C22.6241379,6.72413793 22.8556034,6.95560345 22.8556034,7.24137931 Z" id="Path" fill="#FE4F60" fill-rule="nonzero"></path>
                    <path d="M16.3900862,13.06875 C16.3900862,16.6051293 13.5227586,19.4696121 9.98922414,19.4696121 C6.66,19.4696121 3.58836207,16.8814009 3.58836207,12.8663793 L3.58836207,7.75862069 L16.3900862,7.75862069 L16.3900862,13.06875 Z" id="Path" fill="#FFEBD2" fill-rule="nonzero"></path>
                    <path d="M19.9137931,26.8734914 L19.9137931,29.437069 C19.9137931,29.7228448 19.6823276,29.9543103 19.3965517,29.9543103 L0.517241379,29.9543103 C0.231465517,29.9543103 4.79616347e-14,29.7228448 4.79616347e-14,29.437069 L4.79616347e-14,26.8734914 C4.79616347e-14,24.2077586 2.18146552,22.1025862 4.84719828,22.0773707 C5.46530172,22.0715517 6.03426724,21.85625 6.48491379,21.5 C7.00428879,22.019375 7.8256681,22.7126078 8.06056034,24.1198276 C9.22622845,24.6518103 10.782931,24.621681 11.8480603,24.1528017 C12.0723491,22.7332328 12.8955388,22.0333405 13.4288793,21.5 C13.8795259,21.85625 14.4484914,22.0715517 15.0665948,22.0773707 C17.7323276,22.1025862 19.9137931,24.2077586 19.9137931,26.8734914 Z" id="Path-Copy-8" fill="url(#linearGradient-1)"></path>
                    <path d="M8.14719828,30 L8.14778963,28.2949559 C8.15044867,24.3880177 8.15847999,24.5542534 8.09288793,24.1655172 L8.31571243,24.2587012 C8.42590391,24.3007783 8.53885912,24.3382588 8.6538348,24.3711797 C8.69263697,24.382225 8.73151974,24.3927886 8.77060949,24.4028467 L8.6538348,24.3711797 C8.73366592,24.3940377 8.81447109,24.4146976 8.89600154,24.4331719 L8.77060949,24.4028467 C9.81861911,24.6725093 11.0154058,24.5788913 11.8803879,24.1984914 C11.8133405,24.6140948 11.83125,24.3292888 11.83125,30 L8.14719828,30 Z" id="Combined-Shape" fill="#FAD050" fill-rule="nonzero"></path>
                    <path d="M3.58836207,7.75862069 L3.58836207,12.8663793 C2.66670259,12.8663793 1.97198276,12.1380388 1.97198276,11.2797414 L1.97198276,7.75862069 L3.58836207,7.75862069 Z" id="Path" fill="#FFEC8F" fill-rule="nonzero"></path>
                    <path d="M5.52801724,7.75862069 L5.52801724,11.7756466 C5.52801724,14.1362069 6.76887931,16.0939655 8.53991379,17.2019612 C9.59230603,17.8603448 8.7624569,19.4749784 7.61043103,19.0125647 C5.24185345,18.061875 3.58836207,15.7536853 3.58836207,13.0686853 L3.58836207,7.75862069 L5.52801724,7.75862069 Z" id="Path" fill="#FFF3E4" fill-rule="nonzero"></path>
                    <path d="M12.519181,20.0702586 C10.9262716,20.7370474 9.17573276,20.7887716 7.45926724,20.0702586 C7.54693966,19.7065086 7.53232759,19.4709052 7.53232759,19.0086207 L7.54202586,18.9846983 C9.09905172,19.6309914 10.8763578,19.6322845 12.4364224,18.9846983 L12.4461207,19.0086207 C12.4461207,19.4710991 12.4315086,19.7066379 12.519181,20.0702586 L12.519181,20.0702586 Z" id="Path" fill="#FFD6A6" fill-rule="nonzero"></path>
                    <path d="M14.0716164,0.428987069 C14.8806466,0.747413793 14.6451724,1.94476293 13.7757543,1.93971983 C13.7458836,1.93959052 10.1484052,1.93965517 10.1185345,1.93965517 C7.04760776,1.93965517 4.49709052,4.16987069 3.99982759,7.09959052 C3.93549569,7.47866379 3.61189655,7.75862069 3.2274569,7.75862069 L1.97198276,7.75862069 L1.97198276,6.20689655 C1.97198276,2.77894397 4.75092672,0 8.17887931,0 L11.799569,0 C12.6015517,0 13.3679741,0.152068966 14.0716164,0.428987069 Z" id="Path" fill="#FF6D7A" fill-rule="nonzero"></path>
                </g>
                <g id="person-copy" transform="translate(0.000000, 5.000000)">
                    <path d="M38.0926724,12.0689655 C38.0926724,12.5452586 37.7068966,12.9310345 37.2306034,12.9310345 L30.0107759,12.9310345 L30.0107759,18.75 C30.0107759,20.2381466 28.8049569,21.4439655 27.3168103,21.4439655 L27.3168103,21.78125 C27.3168103,26.2284483 24.5959052,30.0398707 20.7273707,31.6411638 L20.7435345,31.6810345 C20.7435345,32.4322198 20.5632543,34.428556 22.4353448,35.9094828 C23.1864224,36.5032328 24.1346983,36.862069 25.1648707,36.8717672 C29.6077586,36.9137931 33.2435345,40.4224138 33.2435345,44.8653017 L33.2435345,49.137931 C33.2435345,49.6142241 32.8577586,50 32.3814655,50 L0.915948276,50 C0.439655172,50 0.0538793103,49.6142241 0.0538793103,49.137931 L0.0538793103,44.8653017 C0.0538793103,40.4224138 3.68965517,36.9137931 8.1325431,36.8717672 C10.5661638,36.8488147 12.5538793,34.8773707 12.5538793,32.4170259 L12.5538793,31.6810345 L12.5700431,31.6411638 C8.70150862,30.0398707 5.98060345,26.2284483 5.98060345,21.78125 L5.98060345,21.4439655 C4.44482759,21.4439655 3.28663793,20.2303879 3.28663793,18.799569 L3.28663793,10.3448276 C3.28663793,4.63146552 7.91810345,8.32667268e-15 13.6314655,8.32667268e-15 L19.6659483,8.32667268e-15 C25.3793103,8.32667268e-15 30.0107759,4.63146552 30.0107759,10.3448276 L30.0107759,11.2068966 L37.2306034,11.2068966 C37.7068966,11.2068966 38.0926724,11.5926724 38.0926724,12.0689655 Z" id="Path" fill="#FFDFBA" fill-rule="nonzero"></path>
                    <path d="M30.0107759,12.9310345 L30.0107759,18.75 C30.0107759,20.2381466 28.8049569,21.4439655 27.3168103,21.4439655 C27.3168103,20.0732759 27.3168103,15.5237069 27.3168103,12.9310345 L30.0107759,12.9310345 Z" id="Path" fill="#FFE773" fill-rule="nonzero"></path>
                    <path d="M38.0926724,12.0689655 C38.0926724,12.5452586 37.7068966,12.9310345 37.2306034,12.9310345 L3.28663793,12.9310345 L3.28663793,10.3448276 C3.28663793,4.63146552 7.91810345,0 13.6314655,0 L19.6659483,0 C25.3793103,0 30.0107759,4.63146552 30.0107759,10.3448276 L30.0107759,11.2068966 L37.2306034,11.2068966 C37.7068966,11.2068966 38.0926724,11.5926724 38.0926724,12.0689655 Z" id="Path" fill="#FE4F60" fill-rule="nonzero"></path>
                    <path d="M27.3168103,21.78125 C27.3168103,27.6752155 22.537931,32.4493534 16.6487069,32.4493534 C11.1,32.4493534 5.98060345,28.1356681 5.98060345,21.4439655 L5.98060345,12.9310345 L27.3168103,12.9310345 L27.3168103,21.78125 Z" id="Path" fill="#FFEBD2" fill-rule="nonzero"></path>
                    <path d="M33.1896552,44.7891523 L33.1896552,49.0617816 C33.1896552,49.5380747 32.8038793,49.9238506 32.3275862,49.9238506 L0.862068966,49.9238506 C0.385775862,49.9238506 7.99360578e-14,49.5380747 7.99360578e-14,49.0617816 L7.99360578e-14,44.7891523 C7.99360578e-14,40.3462644 3.63577586,36.8376437 8.07866379,36.7956178 C9.10883621,36.7859195 10.0571121,36.4270833 10.8081897,35.8333333 C11.6738147,36.6989583 13.0427802,37.8543463 13.4342672,40.1997126 C15.3770474,41.0863506 17.9715517,41.0361351 19.7467672,40.2546695 C20.1205819,37.8887213 21.4925647,36.7222342 22.3814655,35.8333333 C23.1325431,36.4270833 24.080819,36.7859195 25.1109914,36.7956178 C29.5538793,36.8376437 33.1896552,40.3462644 33.1896552,44.7891523 Z" id="Path-Copy-5" fill="url(#linearGradient-2)"></path>
                    <path d="M13.5786638,50 L13.5790964,48.1245977 C13.5825475,40.6185372 13.602617,40.9542796 13.4881466,40.2758621 C13.7075797,40.3759654 13.9351081,40.4640679 14.1686463,40.5405016 C14.2267539,40.5596525 14.2849006,40.5778449 14.3433802,40.5953217 L14.1686463,40.5405016 C14.2358744,40.5625044 14.3036005,40.5835402 14.3717749,40.6036169 L14.3433802,40.5953217 C14.530319,40.6511889 14.7206604,40.6997428 14.9132368,40.7410418 C16.5863653,41.1018434 18.439864,40.9292609 19.8006466,40.330819 C19.6889009,41.0234914 19.71875,40.5488147 19.71875,50 L13.5786638,50 Z" id="Combined-Shape" fill="#FAD050" fill-rule="nonzero"></path>
                    <path d="M5.98060345,12.9310345 L5.98060345,21.4439655 C4.44450431,21.4439655 3.28663793,20.2300647 3.28663793,18.799569 L3.28663793,12.9310345 L5.98060345,12.9310345 Z" id="Path" fill="#FFEC8F" fill-rule="nonzero"></path>
                    <path d="M9.21336207,12.9310345 L9.21336207,19.6260776 C9.21336207,23.5603448 11.2814655,26.8232759 14.2331897,28.6699353 C15.9871767,29.7672414 14.6040948,32.4582974 12.6840517,31.6876078 C8.73642241,30.103125 5.98060345,26.2561422 5.98060345,21.7811422 L5.98060345,12.9310345 L9.21336207,12.9310345 Z" id="Path" fill="#FFF3E4" fill-rule="nonzero"></path>
                    <path d="M20.8653017,33.450431 C18.2104526,34.5617457 15.2928879,34.6479526 12.4321121,33.450431 C12.5782328,32.844181 12.5538793,32.4515086 12.5538793,31.6810345 L12.5700431,31.6411638 C15.1650862,32.718319 18.1272629,32.7204741 20.7273707,31.6411638 L20.7435345,31.6810345 C20.7435345,32.4518319 20.719181,32.8443966 20.8653017,33.450431 L20.8653017,33.450431 Z" id="Path" fill="#FFD6A6" fill-rule="nonzero"></path>
                    <path d="M23.452694,0.714978448 C24.8010776,1.24568966 24.4086207,3.24127155 22.9595905,3.23286638 C22.909806,3.23265086 16.9140086,3.23275862 16.8642241,3.23275862 C11.7460129,3.23275862 7.49515086,6.94978448 6.66637931,11.8326509 C6.55915948,12.4644397 6.01982759,12.9310345 5.37909483,12.9310345 L3.28663793,12.9310345 L3.28663793,10.3448276 C3.28663793,4.63157328 7.91821121,0 13.6314655,0 L19.6659483,0 C21.0025862,0 22.2799569,0.253448276 23.452694,0.714978448 Z" id="Path" fill="#FF6D7A" fill-rule="nonzero"></path>
                </g>
                <g id="person-copy-2" transform="translate(56.000000, 5.000000)">
                    <path d="M38.0926724,12.0689655 C38.0926724,12.5452586 37.7068966,12.9310345 37.2306034,12.9310345 L30.0107759,12.9310345 L30.0107759,18.75 C30.0107759,20.2381466 28.8049569,21.4439655 27.3168103,21.4439655 L27.3168103,21.78125 C27.3168103,26.2284483 24.5959052,30.0398707 20.7273707,31.6411638 L20.7435345,31.6810345 C20.7435345,32.4322198 20.5632543,34.428556 22.4353448,35.9094828 C23.1864224,36.5032328 24.1346983,36.862069 25.1648707,36.8717672 C29.6077586,36.9137931 33.2435345,40.4224138 33.2435345,44.8653017 L33.2435345,49.137931 C33.2435345,49.6142241 32.8577586,50 32.3814655,50 L0.915948276,50 C0.439655172,50 0.0538793103,49.6142241 0.0538793103,49.137931 L0.0538793103,44.8653017 C0.0538793103,40.4224138 3.68965517,36.9137931 8.1325431,36.8717672 C10.5661638,36.8488147 12.5538793,34.8773707 12.5538793,32.4170259 L12.5538793,31.6810345 L12.5700431,31.6411638 C8.70150862,30.0398707 5.98060345,26.2284483 5.98060345,21.78125 L5.98060345,21.4439655 C4.44482759,21.4439655 3.28663793,20.2303879 3.28663793,18.799569 L3.28663793,10.3448276 C3.28663793,4.63146552 7.91810345,8.32667268e-15 13.6314655,8.32667268e-15 L19.6659483,8.32667268e-15 C25.3793103,8.32667268e-15 30.0107759,4.63146552 30.0107759,10.3448276 L30.0107759,11.2068966 L37.2306034,11.2068966 C37.7068966,11.2068966 38.0926724,11.5926724 38.0926724,12.0689655 Z" id="Path" fill="#FFDFBA" fill-rule="nonzero"></path>
                    <path d="M30.0107759,12.9310345 L30.0107759,18.75 C30.0107759,20.2381466 28.8049569,21.4439655 27.3168103,21.4439655 C27.3168103,20.0732759 27.3168103,15.5237069 27.3168103,12.9310345 L30.0107759,12.9310345 Z" id="Path" fill="#FFE773" fill-rule="nonzero"></path>
                    <path d="M38.0926724,12.0689655 C38.0926724,12.5452586 37.7068966,12.9310345 37.2306034,12.9310345 L3.28663793,12.9310345 L3.28663793,10.3448276 C3.28663793,4.63146552 7.91810345,0 13.6314655,0 L19.6659483,0 C25.3793103,0 30.0107759,4.63146552 30.0107759,10.3448276 L30.0107759,11.2068966 L37.2306034,11.2068966 C37.7068966,11.2068966 38.0926724,11.5926724 38.0926724,12.0689655 Z" id="Path" fill="#FE4F60" fill-rule="nonzero"></path>
                    <path d="M27.3168103,21.78125 C27.3168103,27.6752155 22.537931,32.4493534 16.6487069,32.4493534 C11.1,32.4493534 5.98060345,28.1356681 5.98060345,21.4439655 L5.98060345,12.9310345 L27.3168103,12.9310345 L27.3168103,21.78125 Z" id="Path" fill="#FFEBD2" fill-rule="nonzero"></path>
                    <path d="M33.1896552,44.7891523 L33.1896552,49.0617816 C33.1896552,49.5380747 32.8038793,49.9238506 32.3275862,49.9238506 L0.862068966,49.9238506 C0.385775862,49.9238506 7.99360578e-14,49.5380747 7.99360578e-14,49.0617816 L7.99360578e-14,44.7891523 C7.99360578e-14,40.3462644 3.63577586,36.8376437 8.07866379,36.7956178 C9.10883621,36.7859195 10.0571121,36.4270833 10.8081897,35.8333333 C11.6738147,36.6989583 13.0427802,37.8543463 13.4342672,40.1997126 C15.3770474,41.0863506 17.9715517,41.0361351 19.7467672,40.2546695 C20.1205819,37.8887213 21.4925647,36.7222342 22.3814655,35.8333333 C23.1325431,36.4270833 24.080819,36.7859195 25.1109914,36.7956178 C29.5538793,36.8376437 33.1896552,40.3462644 33.1896552,44.7891523 Z" id="Path-Copy-6" fill="url(#linearGradient-2)"></path>
                    <path d="M13.5786638,50 L13.5790964,48.1245977 C13.5825475,40.6185372 13.602617,40.9542796 13.4881466,40.2758621 C13.7075797,40.3759654 13.9351081,40.4640679 14.1686463,40.5405016 C14.2267539,40.5596525 14.2849006,40.5778449 14.3433802,40.5953217 L14.1686463,40.5405016 C14.2358744,40.5625044 14.3036005,40.5835402 14.3717749,40.6036169 L14.3433802,40.5953217 C14.530319,40.6511889 14.7206604,40.6997428 14.9132368,40.7410418 C16.5863653,41.1018434 18.439864,40.9292609 19.8006466,40.330819 C19.6889009,41.0234914 19.71875,40.5488147 19.71875,50 L13.5786638,50 Z" id="Combined-Shape" fill="#FAD050" fill-rule="nonzero"></path>
                    <path d="M5.98060345,12.9310345 L5.98060345,21.4439655 C4.44450431,21.4439655 3.28663793,20.2300647 3.28663793,18.799569 L3.28663793,12.9310345 L5.98060345,12.9310345 Z" id="Path" fill="#FFEC8F" fill-rule="nonzero"></path>
                    <path d="M9.21336207,12.9310345 L9.21336207,19.6260776 C9.21336207,23.5603448 11.2814655,26.8232759 14.2331897,28.6699353 C15.9871767,29.7672414 14.6040948,32.4582974 12.6840517,31.6876078 C8.73642241,30.103125 5.98060345,26.2561422 5.98060345,21.7811422 L5.98060345,12.9310345 L9.21336207,12.9310345 Z" id="Path" fill="#FFF3E4" fill-rule="nonzero"></path>
                    <path d="M20.8653017,33.450431 C18.2104526,34.5617457 15.2928879,34.6479526 12.4321121,33.450431 C12.5782328,32.844181 12.5538793,32.4515086 12.5538793,31.6810345 L12.5700431,31.6411638 C15.1650862,32.718319 18.1272629,32.7204741 20.7273707,31.6411638 L20.7435345,31.6810345 C20.7435345,32.4518319 20.719181,32.8443966 20.8653017,33.450431 L20.8653017,33.450431 Z" id="Path" fill="#FFD6A6" fill-rule="nonzero"></path>
                    <path d="M23.452694,0.714978448 C24.8010776,1.24568966 24.4086207,3.24127155 22.9595905,3.23286638 C22.909806,3.23265086 16.9140086,3.23275862 16.8642241,3.23275862 C11.7460129,3.23275862 7.49515086,6.94978448 6.66637931,11.8326509 C6.55915948,12.4644397 6.01982759,12.9310345 5.37909483,12.9310345 L3.28663793,12.9310345 L3.28663793,10.3448276 C3.28663793,4.63157328 7.91821121,0 13.6314655,0 L19.6659483,0 C21.0025862,0 22.2799569,0.253448276 23.452694,0.714978448 Z" id="Path" fill="#FF6D7A" fill-rule="nonzero"></path>
                </g>
                <g id="person" transform="translate(26.000000, 0.000000)">
                    <path d="M45.7112069,14.4827586 C45.7112069,15.0543103 45.2482759,15.5172414 44.6767241,15.5172414 L36.012931,15.5172414 L36.012931,22.5 C36.012931,24.2857759 34.5659483,25.7327586 32.7801724,25.7327586 L32.7801724,26.1375 C32.7801724,31.4741379 29.5150862,36.0478448 24.8728448,37.9693966 L24.8922414,38.0172414 C24.8922414,38.9186638 24.6759052,41.3142672 26.9224138,43.0913793 C27.8237069,43.8038793 28.9616379,44.2344828 30.1978448,44.2461207 C35.5293103,44.2965517 39.8922414,48.5068966 39.8922414,53.8383621 L39.8922414,58.9655172 C39.8922414,59.537069 39.4293103,60 38.8577586,60 L1.09913793,60 C0.527586207,60 0.0646551724,59.537069 0.0646551724,58.9655172 L0.0646551724,53.8383621 C0.0646551724,48.5068966 4.42758621,44.2965517 9.75905172,44.2461207 C12.6793966,44.2185776 15.0646552,41.8528448 15.0646552,38.900431 L15.0646552,38.0172414 L15.0840517,37.9693966 C10.4418103,36.0478448 7.17672414,31.4741379 7.17672414,26.1375 L7.17672414,25.7327586 C5.3337931,25.7327586 3.94396552,24.2764655 3.94396552,22.5594828 L3.94396552,12.4137931 C3.94396552,5.55775862 9.50172414,9.99200722e-15 16.3577586,9.99200722e-15 L23.5991379,9.99200722e-15 C30.4551724,9.99200722e-15 36.012931,5.55775862 36.012931,12.4137931 L36.012931,13.4482759 L44.6767241,13.4482759 C45.2482759,13.4482759 45.7112069,13.9112069 45.7112069,14.4827586 Z" id="Path" fill="#FFDFBA" fill-rule="nonzero"></path>
                    <path d="M36.012931,15.5172414 L36.012931,22.5 C36.012931,24.2857759 34.5659483,25.7327586 32.7801724,25.7327586 C32.7801724,24.087931 32.7801724,18.6284483 32.7801724,15.5172414 L36.012931,15.5172414 Z" id="Path" fill="#FFE773" fill-rule="nonzero"></path>
                    <path d="M45.7112069,14.4827586 C45.7112069,15.0543103 45.2482759,15.5172414 44.6767241,15.5172414 L3.94396552,15.5172414 L3.94396552,12.4137931 C3.94396552,5.55775862 9.50172414,0 16.3577586,0 L23.5991379,0 C30.4551724,0 36.012931,5.55775862 36.012931,12.4137931 L36.012931,13.4482759 L44.6767241,13.4482759 C45.2482759,13.4482759 45.7112069,13.9112069 45.7112069,14.4827586 Z" id="Path" fill="#FE4F60" fill-rule="nonzero"></path>
                    <path d="M32.7801724,26.1375 C32.7801724,33.2102586 27.0455172,38.9392241 19.9784483,38.9392241 C13.32,38.9392241 7.17672414,33.7628017 7.17672414,25.7327586 L7.17672414,15.5172414 L32.7801724,15.5172414 L32.7801724,26.1375 Z" id="Path" fill="#FFEBD2" fill-rule="nonzero"></path>
                    <path d="M39.8275862,53.7469828 L39.8275862,58.8741379 C39.8275862,59.4456897 39.3646552,59.9086207 38.7931034,59.9086207 L1.03448276,59.9086207 C0.462931034,59.9086207 9.59232693e-14,59.4456897 9.59232693e-14,58.8741379 L9.59232693e-14,53.7469828 C9.59232693e-14,48.4155172 4.36293103,44.2051724 9.69439655,44.1547414 C10.9306034,44.1431034 12.0685345,43.7125 12.9698276,43 C14.0085776,44.03875 15.6513362,45.4252155 16.1211207,48.2396552 C18.4524569,49.3036207 21.5658621,49.2433621 23.6961207,48.3056034 C24.1446983,45.4664655 25.7910776,44.066681 26.8577586,43 C27.7590517,43.7125 28.8969828,44.1431034 30.1331897,44.1547414 C35.4646552,44.2051724 39.8275862,48.4155172 39.8275862,53.7469828 Z" id="Path-Copy-7" fill="url(#linearGradient-3)"></path>
                    <path d="M16.2943966,60 L16.294775,58.0791978 C16.2984532,48.7323598 16.3247954,49.1549439 16.1857759,48.3310345 L16.4885428,48.4611576 C16.5511946,48.4864884 16.6143174,48.5110537 16.67788,48.5348584 C16.7235362,48.5520845 16.7697462,48.5689166 16.8161773,48.5853522 L16.67788,48.5348584 C16.7705832,48.5695764 16.864222,48.6026766 16.9586998,48.6341744 L16.8161773,48.5853522 C16.9359371,48.6277447 17.0571677,48.6674997 17.1796397,48.7046285 L16.9586998,48.6341744 C17.0666825,48.6701746 17.1757612,48.7040815 17.2857916,48.735918 L17.1796397,48.7046285 C17.2869999,48.737176 17.3953141,48.7677055 17.5044279,48.7962248 L17.2857916,48.735918 C17.4020346,48.7695522 17.5193397,48.8008756 17.6375368,48.8299154 L17.5044279,48.7962248 C17.6303385,48.8291342 17.7573139,48.8593668 17.8851169,48.8869344 L17.6375368,48.8299154 C19.7102545,49.3391608 22.057254,49.1461538 23.7607759,48.3969828 C23.626681,49.2281897 23.6625,48.6585776 23.6625,60 L16.2943966,60 Z" id="Combined-Shape" fill="#FAD050" fill-rule="nonzero"></path>
                    <path d="M7.17672414,15.5172414 L7.17672414,25.7327586 C5.33340517,25.7327586 3.94396552,24.2760776 3.94396552,22.5594828 L3.94396552,15.5172414 L7.17672414,15.5172414 Z" id="Path" fill="#FFEC8F" fill-rule="nonzero"></path>
                    <path d="M11.0560345,15.5172414 L11.0560345,23.5512931 C11.0560345,28.2724138 13.5377586,32.187931 17.0798276,34.4039224 C19.1846121,35.7206897 17.5249138,38.9499569 15.2208621,38.0251293 C10.4837069,36.12375 7.17672414,31.5073707 7.17672414,26.1373707 L7.17672414,15.5172414 L11.0560345,15.5172414 Z" id="Path" fill="#FFF3E4" fill-rule="nonzero"></path>
                    <path d="M25.0383621,40.1405172 C21.8525431,41.4740948 18.3514655,41.5775431 14.9185345,40.1405172 C15.0938793,39.4130172 15.0646552,38.9418103 15.0646552,38.0172414 L15.0840517,37.9693966 C18.1981034,39.2619828 21.7527155,39.264569 24.8728448,37.9693966 L24.8922414,38.0172414 C24.8922414,38.9421983 24.8630172,39.4132759 25.0383621,40.1405172 L25.0383621,40.1405172 Z" id="Path" fill="#FFD6A6" fill-rule="nonzero"></path>
                    <path d="M28.1432328,0.857974138 C29.7612931,1.49482759 29.2903448,3.88952586 27.5515086,3.87943966 C27.4917672,3.87918103 20.2968103,3.87931034 20.237069,3.87931034 C14.0952155,3.87931034 8.99418103,8.33974138 7.99965517,14.199181 C7.87099138,14.9573276 7.2237931,15.5172414 6.45491379,15.5172414 L3.94396552,15.5172414 L3.94396552,12.4137931 C3.94396552,5.55788793 9.50185345,0 16.3577586,0 L23.5991379,0 C25.2031034,0 26.7359483,0.304137931 28.1432328,0.857974138 Z" id="Path" fill="#FF6D7A" fill-rule="nonzero"></path>
                </g>
            </g>
        </g>
    </g>
</svg>