<?xml version="1.0" encoding="UTF-8"?>
<svg width="46px" height="60px" viewBox="0 0 46 60" version="1.1" xmlns="http://www.w3.org/2000/svg" xmlns:xlink="http://www.w3.org/1999/xlink">
    <!-- Generator: Sketch 64 (93537) - https://sketch.com -->
    <title>person copy 4</title>
    <desc>Created with Sketch.</desc>
    <defs>
        <linearGradient x1="116.815593%" y1="59.0119421%" x2="14.9820907%" y2="38.9823893%" id="linearGradient-1">
            <stop stop-color="#F6BE45" offset="0%"></stop>
            <stop stop-color="#DC332E" offset="100%"></stop>
            <stop stop-color="#DC332E" offset="100%"></stop>
        </linearGradient>
    </defs>
    <g id="Page-1" stroke="none" stroke-width="1" fill="none" fill-rule="evenodd">
        <g id="Artboard" transform="translate(-1964.000000, -1755.000000)">
            <g id="person-copy-4" transform="translate(1964.000000, 1755.000000)">
                <path d="M45.7112069,14.4827586 C45.7112069,15.0543103 45.2482759,15.5172414 44.6767241,15.5172414 L36.012931,15.5172414 L36.012931,22.5 C36.012931,24.2857759 34.5659483,25.7327586 32.7801724,25.7327586 L32.7801724,26.1375 C32.7801724,31.4741379 29.5150862,36.0478448 24.8728448,37.9693966 L24.8922414,38.0172414 C24.8922414,38.9186638 24.6759052,41.3142672 26.9224138,43.0913793 C27.8237069,43.8038793 28.9616379,44.2344828 30.1978448,44.2461207 C35.5293103,44.2965517 39.8922414,48.5068966 39.8922414,53.8383621 L39.8922414,58.9655172 C39.8922414,59.537069 39.4293103,60 38.8577586,60 L1.09913793,60 C0.527586207,60 0.0646551724,59.537069 0.0646551724,58.9655172 L0.0646551724,53.8383621 C0.0646551724,48.5068966 4.42758621,44.2965517 9.75905172,44.2461207 C12.6793966,44.2185776 15.0646552,41.8528448 15.0646552,38.900431 L15.0646552,38.0172414 L15.0840517,37.9693966 C10.4418103,36.0478448 7.17672414,31.4741379 7.17672414,26.1375 L7.17672414,25.7327586 C5.3337931,25.7327586 3.94396552,24.2764655 3.94396552,22.5594828 L3.94396552,12.4137931 C3.94396552,5.55775862 9.50172414,9.99200722e-15 16.3577586,9.99200722e-15 L23.5991379,9.99200722e-15 C30.4551724,9.99200722e-15 36.012931,5.55775862 36.012931,12.4137931 L36.012931,13.4482759 L44.6767241,13.4482759 C45.2482759,13.4482759 45.7112069,13.9112069 45.7112069,14.4827586 Z" id="Path" fill="#FFDFBA" fill-rule="nonzero"></path>
                <path d="M36.012931,15.5172414 L36.012931,22.5 C36.012931,24.2857759 34.5659483,25.7327586 32.7801724,25.7327586 C32.7801724,24.087931 32.7801724,18.6284483 32.7801724,15.5172414 L36.012931,15.5172414 Z" id="Path" fill="#FFE773" fill-rule="nonzero"></path>
                <path d="M45.7112069,14.4827586 C45.7112069,15.0543103 45.2482759,15.5172414 44.6767241,15.5172414 L3.94396552,15.5172414 L3.94396552,12.4137931 C3.94396552,5.55775862 9.50172414,0 16.3577586,0 L23.5991379,0 C30.4551724,0 36.012931,5.55775862 36.012931,12.4137931 L36.012931,13.4482759 L44.6767241,13.4482759 C45.2482759,13.4482759 45.7112069,13.9112069 45.7112069,14.4827586 Z" id="Path" fill="#FE4F60" fill-rule="nonzero"></path>
                <path d="M32.7801724,26.1375 C32.7801724,33.2102586 27.0455172,38.9392241 19.9784483,38.9392241 C13.32,38.9392241 7.17672414,33.7628017 7.17672414,25.7327586 L7.17672414,15.5172414 L32.7801724,15.5172414 L32.7801724,26.1375 Z" id="Path" fill="#FFEBD2" fill-rule="nonzero"></path>
                <path d="M39.8275862,53.7469828 L39.8275862,58.8741379 C39.8275862,59.4456897 39.3646552,59.9086207 38.7931034,59.9086207 L1.03448276,59.9086207 C0.462931034,59.9086207 9.59232693e-14,59.4456897 9.59232693e-14,58.8741379 L9.59232693e-14,53.7469828 C9.59232693e-14,48.4155172 4.36293103,44.2051724 9.69439655,44.1547414 C10.9306034,44.1431034 12.0685345,43.7125 12.9698276,43 C14.0085776,44.03875 15.6513362,45.4252155 16.1211207,48.2396552 C18.4524569,49.3036207 21.5658621,49.2433621 23.6961207,48.3056034 C24.1446983,45.4664655 25.7910776,44.066681 26.8577586,43 C27.7590517,43.7125 28.8969828,44.1431034 30.1331897,44.1547414 C35.4646552,44.2051724 39.8275862,48.4155172 39.8275862,53.7469828 Z" id="Path-Copy-9" fill="url(#linearGradient-1)"></path>
                <path d="M16.2943966,60 L16.294775,58.0791978 C16.2984532,48.7323598 16.3247954,49.1549439 16.1857759,48.3310345 L16.4885428,48.4611576 C16.5511946,48.4864884 16.6143174,48.5110537 16.67788,48.5348584 C16.7235362,48.5520845 16.7697462,48.5689166 16.8161773,48.5853522 L16.67788,48.5348584 C16.7705832,48.5695764 16.864222,48.6026766 16.9586998,48.6341744 L16.8161773,48.5853522 C16.9359371,48.6277447 17.0571677,48.6674997 17.1796397,48.7046285 L16.9586998,48.6341744 C17.0666825,48.6701746 17.1757612,48.7040815 17.2857916,48.735918 L17.1796397,48.7046285 C17.2869999,48.737176 17.3953141,48.7677055 17.5044279,48.7962248 L17.2857916,48.735918 C17.4020346,48.7695522 17.5193397,48.8008756 17.6375368,48.8299154 L17.5044279,48.7962248 C17.6303385,48.8291342 17.7573139,48.8593668 17.8851169,48.8869344 L17.6375368,48.8299154 C19.7102545,49.3391608 22.057254,49.1461538 23.7607759,48.3969828 C23.626681,49.2281897 23.6625,48.6585776 23.6625,60 L16.2943966,60 Z" id="Combined-Shape" fill="#FAD050" fill-rule="nonzero"></path>
                <path d="M7.17672414,15.5172414 L7.17672414,25.7327586 C5.33340517,25.7327586 3.94396552,24.2760776 3.94396552,22.5594828 L3.94396552,15.5172414 L7.17672414,15.5172414 Z" id="Path" fill="#FFEC8F" fill-rule="nonzero"></path>
                <path d="M11.0560345,15.5172414 L11.0560345,23.5512931 C11.0560345,28.2724138 13.5377586,32.187931 17.0798276,34.4039224 C19.1846121,35.7206897 17.5249138,38.9499569 15.2208621,38.0251293 C10.4837069,36.12375 7.17672414,31.5073707 7.17672414,26.1373707 L7.17672414,15.5172414 L11.0560345,15.5172414 Z" id="Path" fill="#FFF3E4" fill-rule="nonzero"></path>
                <path d="M25.0383621,40.1405172 C21.8525431,41.4740948 18.3514655,41.5775431 14.9185345,40.1405172 C15.0938793,39.4130172 15.0646552,38.9418103 15.0646552,38.0172414 L15.0840517,37.9693966 C18.1981034,39.2619828 21.7527155,39.264569 24.8728448,37.9693966 L24.8922414,38.0172414 C24.8922414,38.9421983 24.8630172,39.4132759 25.0383621,40.1405172 L25.0383621,40.1405172 Z" id="Path" fill="#FFD6A6" fill-rule="nonzero"></path>
                <path d="M28.1432328,0.857974138 C29.7612931,1.49482759 29.2903448,3.88952586 27.5515086,3.87943966 C27.4917672,3.87918103 20.2968103,3.87931034 20.237069,3.87931034 C14.0952155,3.87931034 8.99418103,8.33974138 7.99965517,14.199181 C7.87099138,14.9573276 7.2237931,15.5172414 6.45491379,15.5172414 L3.94396552,15.5172414 L3.94396552,12.4137931 C3.94396552,5.55788793 9.50185345,0 16.3577586,0 L23.5991379,0 C25.2031034,0 26.7359483,0.304137931 28.1432328,0.857974138 Z" id="Path" fill="#FF6D7A" fill-rule="nonzero"></path>
            </g>
        </g>
    </g>
</svg>