<?xml version="1.0" encoding="UTF-8"?>
<svg width="51px" height="60px" viewBox="0 0 51 60" version="1.1" xmlns="http://www.w3.org/2000/svg" xmlns:xlink="http://www.w3.org/1999/xlink">
    <!-- Generator: Sketch 64 (93537) - https://sketch.com -->
    <title>power</title>
    <desc>Created with Sketch.</desc>
    <defs>
        <linearGradient x1="116.815593%" y1="78.1264359%" x2="14.9820907%" y2="15.6138358%" id="linearGradient-1">
            <stop stop-color="#F6BE45" offset="0%"></stop>
            <stop stop-color="#DC332E" offset="100%"></stop>
            <stop stop-color="#DC332E" offset="100%"></stop>
        </linearGradient>
        <linearGradient x1="84.2116636%" y1="100%" x2="-3.8735574%" y2="-20.6268826%" id="linearGradient-2">
            <stop stop-color="#F6BE45" offset="0%"></stop>
            <stop stop-color="#DC332E" offset="100%"></stop>
            <stop stop-color="#DC332E" offset="100%"></stop>
        </linearGradient>
    </defs>
    <g id="Page-1" stroke="none" stroke-width="1" fill="none" fill-rule="evenodd">
        <g id="Artboard" transform="translate(-2092.000000, -1755.000000)">
            <g id="power" transform="translate(2092.000000, 1755.000000)">
                <path d="M46.4217391,51.6824348 C43.9950261,51.6786978 42.02896,49.7119316 42.026087,47.2852174 L42.026087,39.1518261 C42.0257997,38.4524396 41.4592121,37.8853851 40.7598261,37.8845217 L36.8765217,37.8845217 L36.8765217,34.754087 L40.7582609,34.754087 C43.1855848,34.7572499 45.1523696,36.7245015 45.1549565,39.1518261 L45.1549565,47.2852174 C45.1689538,47.9749672 45.7321082,48.5268092 46.422,48.5268092 C47.1118918,48.5268092 47.6750462,47.9749672 47.6890435,47.2852174 L47.6890435,25.3043478 L50.8194783,25.3043478 L50.8194783,47.2852174 C50.8166027,49.7127451 48.8492671,51.6798473 46.4217391,51.6824348 L46.4217391,51.6824348 Z" id="Path" fill="#EAEAF0" fill-rule="nonzero"></path>
                <path d="M49.0732174,22.0434783 L45.5081739,22.0434783 C44.1400642,22.0420404 43.0313509,20.9333271 43.029913,19.5652174 L43.029913,15.6521739 C43.029913,15.1479139 43.4386965,14.7391304 43.9429565,14.7391304 C44.4472165,14.7391304 44.856,15.1479139 44.856,15.6521739 L44.856,19.5652174 C44.8562877,19.9252839 45.1481074,20.2171036 45.5081739,20.2173913 L49.0732174,20.2173913 C49.5774774,20.2173913 49.9862609,20.6261748 49.9862609,21.1304348 C49.9862609,21.6346948 49.5774774,22.0434783 49.0732174,22.0434783 L49.0732174,22.0434783 Z" id="Path" fill="#EAEAF0" fill-rule="nonzero"></path>
                <polygon id="Path" fill="#F7502F" fill-rule="nonzero" points="44.2090435 10.5652174 37.2391304 10.5652174 37.2391304 13.6956522 42.2681739 13.6956522 42.2681739 17.2758261 47.6572174 17.2758261 47.6890435 17.3008696 47.6890435 24.3913043 50.8194783 24.3913043 50.8194783 15.7826087"></polygon>
                <polygon id="Path" fill="#D93922" fill-rule="nonzero" points="36.8765217 10.5652174 42.2697391 10.5652174 42.2697391 13.6956522 36.8765217 13.6956522"></polygon>
                <polygon id="Path" fill="#D8D8D8" fill-rule="nonzero" points="47.6890435 23.265913 50.8194783 23.265913 50.8194783 26.3963478 47.6890435 26.3963478"></polygon>
                <polygon id="Path" fill="url(#linearGradient-1)" transform="translate(20.819739, 34.590000) rotate(90.000000) translate(-20.819739, -34.590000) " points="-3.02556522 16.7055652 44.6650435 16.7055652 44.6650435 52.4744348 -3.02556522 52.4744348"></polygon>
                <path d="M6.06521739,42.3688697 C5.5609574,42.3688697 5.15217391,41.9600861 5.15217391,41.4558261 L5.15217391,37.8036522 C5.15217391,37.2993922 5.5609574,36.8906087 6.06521739,36.8906087 C6.56947738,36.8906087 6.97826102,37.2993922 6.97826102,37.8036522 L6.97826102,41.4558261 C6.97839939,41.6980227 6.88224849,41.9303394 6.71098959,42.1015983 C6.53973069,42.2728572 6.30741402,42.3690081 6.06521739,42.3688697 L6.06521739,42.3688697 Z" id="Path" fill="#FFFFFF" fill-rule="nonzero"></path>
                <rect id="Rectangle" fill="#FFD422" fill-rule="nonzero" x="2.93478261" y="0" width="35.7693913" height="23.265913" rx="3.13043478"></rect>
                <polygon id="Path" fill="#FFFFFF" fill-rule="nonzero" transform="translate(20.818957, 11.632957) rotate(90.000000) translate(-20.818957, -11.632957) " points="15.4468696 0.00913043478 26.1910435 0.00913043478 26.1910435 23.2567826 15.4468696 23.2567826"></polygon>
                <polygon id="Path" fill="#D93922" fill-rule="nonzero" points="0.0500869565 56.8695652 41.5883478 56.8695652 41.5883478 60 0.0500869565 60"></polygon>
                <circle id="Oval" fill="#FFFFFF" fill-rule="nonzero" cx="20.8194783" cy="41.3467826" r="7.25426087"></circle>
                <path d="M23.949913,42.5911304 C23.949913,44.3200218 22.5483697,45.7215652 20.8194783,45.7215652 C19.0905869,45.7215652 17.6890435,44.3200218 17.6890435,42.5911304 C17.6890435,40.1911304 20.8194783,36.972 20.8194783,36.972 C20.8194783,36.972 23.949913,40.1911304 23.949913,42.5911304 L23.949913,42.5911304 Z" id="Path" fill="url(#linearGradient-2)"></path>
            </g>
        </g>
    </g>
</svg>